<?xml version="1.0" standalone="no"?>
<!DOCTYPE svg PUBLIC "-//W3C//DTD SVG 20010904//EN"
 "http://www.w3.org/TR/2001/REC-SVG-20010904/DTD/svg10.dtd">
<svg version="1.0" xmlns="http://www.w3.org/2000/svg"
 width="702.000000pt" height="1280.000000pt" viewBox="0 0 702.000000 1280.000000"
 preserveAspectRatio="xMidYMid meet">
<metadata>
Created by potrace 1.15, written by Peter Selinger 2001-2017
</metadata>
<g transform="translate(0.000000,1280.000000) scale(0.100000,-0.100000)"
fill="#000000" stroke="none">
<path d="M6475 12769 c-27 -17 -101 -82 -165 -145 -64 -63 -120 -114 -124
-114 -4 0 -26 16 -48 35 -23 19 -64 42 -92 51 -64 22 -204 22 -266 1 -25 -9
-72 -25 -104 -36 -97 -34 -140 -28 -201 30 -39 37 -146 79 -200 79 -94 0 -197
-54 -327 -171 -57 -52 -85 -88 -128 -164 -30 -54 -74 -119 -96 -144 -30 -33
-43 -59 -49 -91 -9 -57 -44 -146 -112 -284 -29 -60 -53 -114 -53 -121 0 -7 7
-18 15 -25 20 -16 14 -47 -30 -155 -18 -44 -45 -129 -60 -188 -28 -106 -28
-109 -11 -138 17 -29 16 -79 -2 -79 -4 0 -29 17 -57 38 -126 94 -211 145 -245
147 -19 1 -82 23 -140 49 -198 90 -335 146 -354 146 -11 0 -54 13 -95 30 -88
34 -302 100 -325 100 -9 0 -16 -7 -16 -16 0 -26 -126 -12 -250 26 l-101 32
-19 -20 c-11 -11 -32 -23 -47 -26 -71 -14 -199 -26 -323 -30 -119 -4 -136 -7
-150 -25 -17 -23 -109 -36 -450 -66 l-185 -17 -30 -33 c-23 -26 -66 -47 -190
-96 -179 -70 -212 -90 -223 -134 -7 -24 -26 -41 -103 -87 -193 -116 -210 -133
-224 -213 -8 -44 -53 -98 -120 -142 -22 -15 -68 -49 -102 -76 -58 -44 -63 -52
-63 -87 0 -41 -28 -85 -60 -95 -27 -8 -26 -29 1 -22 16 4 19 2 14 -11 -4 -9
-16 -53 -26 -97 -11 -44 -24 -97 -29 -117 -7 -23 -39 -68 -90 -124 -44 -48
-80 -95 -80 -104 0 -31 25 -42 76 -34 28 4 67 2 101 -7 45 -10 76 -10 164 -1
60 7 121 17 136 23 14 5 34 7 42 3 24 -11 167 -5 334 13 110 12 151 13 160 4
18 -18 90 -13 189 15 51 15 122 35 158 45 82 23 109 23 132 3 16 -15 29 -16
125 -6 60 7 152 25 206 41 97 30 122 30 143 3 11 -16 68 -3 276 64 122 39 136
40 153 18 12 -18 53 -14 230 21 129 26 234 37 279 31 29 -5 81 0 153 14 59 11
133 20 163 19 70 -3 148 10 129 22 -7 4 -11 10 -9 12 49 37 143 98 147 94 3
-3 -17 -54 -45 -114 -27 -59 -71 -168 -98 -240 -27 -73 -52 -133 -56 -133 -5
0 -8 14 -8 30 0 17 5 30 12 30 30 0 -12 21 -61 30 -46 8 -63 19 -121 73 -79
75 -125 92 -248 92 l-83 -1 -142 -73 c-175 -91 -200 -107 -192 -131 4 -13 -17
-35 -90 -90 -100 -76 -115 -93 -115 -133 0 -30 -97 -148 -165 -200 -35 -26
-49 -44 -48 -58 2 -11 -4 -34 -13 -52 -24 -46 -101 -155 -145 -204 -32 -35
-37 -47 -33 -75 4 -27 -3 -48 -43 -113 -27 -45 -56 -81 -66 -83 -11 -2 -30 6
-43 19 -29 27 -104 150 -104 170 0 22 -151 314 -176 339 -29 30 -36 -7 -30
-170 4 -123 9 -165 25 -200 10 -25 22 -71 26 -103 8 -67 41 -149 80 -195 15
-18 57 -49 93 -69 37 -20 68 -37 70 -39 2 -1 -6 -20 -17 -43 -12 -22 -21 -49
-21 -61 0 -45 -48 -16 -164 101 -46 46 -95 93 -108 105 -12 11 -30 31 -38 43
-68 105 -145 189 -215 236 -30 20 -80 67 -111 105 -31 39 -60 67 -65 64 -17
-10 -9 -116 17 -217 33 -132 43 -153 98 -212 26 -27 64 -75 86 -106 64 -93
178 -192 265 -229 41 -19 75 -37 75 -40 0 -8 -33 -20 -177 -69 -121 -41 -163
-40 -320 9 -70 22 -186 52 -258 67 -110 22 -148 35 -245 84 -156 78 -246 105
-434 129 -87 12 -181 30 -208 41 -68 26 -113 25 -143 -6 -47 -46 -29 -117 56
-218 32 -38 61 -81 64 -95 9 -41 185 -150 305 -189 47 -15 104 -19 370 -23
173 -3 345 -2 382 3 71 8 226 59 243 80 6 7 39 18 75 25 95 17 212 57 318 109
51 25 95 43 98 40 8 -8 -36 -114 -54 -130 -10 -9 -37 -29 -60 -45 -65 -43
-302 -265 -403 -376 -160 -177 -305 -380 -417 -586 -29 -53 -54 -85 -85 -106
-94 -67 -167 -203 -196 -366 -6 -33 -35 -106 -72 -180 -34 -67 -81 -175 -105
-238 -42 -108 -114 -365 -129 -455 -3 -22 -26 -79 -50 -126 -86 -167 -121
-285 -192 -649 -25 -133 -26 -469 0 -586 33 -149 96 -284 175 -372 45 -51 51
-54 125 -69 l78 -16 26 24 c14 13 63 101 108 194 81 166 113 261 145 430 6 33
17 87 25 120 33 138 45 278 43 485 -6 451 -5 479 20 559 30 94 51 258 52 391
0 58 5 138 10 177 6 44 6 92 0 120 -7 38 -5 60 10 103 44 132 70 344 50 414
-10 38 -10 49 7 87 28 62 330 508 345 509 4 0 -6 -28 -22 -63 -16 -35 -34 -91
-40 -126 -6 -35 -15 -73 -20 -86 -5 -13 -25 -105 -46 -205 -35 -174 -35 -182
-18 -195 23 -17 21 -100 -5 -231 -16 -79 -17 -91 -3 -112 23 -35 -7 -226 -47
-304 -59 -116 11 -70 112 72 49 69 82 100 164 152 22 13 43 42 63 83 16 34 37
69 46 76 29 23 73 129 79 188 4 31 17 79 30 106 18 37 27 81 36 170 6 66 18
134 25 152 17 38 18 120 3 278 -10 104 -10 130 5 192 9 40 16 94 16 122 0 79
39 151 82 151 24 0 23 -7 -8 -74 -19 -43 -24 -65 -19 -94 3 -21 -1 -69 -11
-112 -18 -83 -18 -89 -5 -275 14 -191 26 -287 41 -317 17 -35 0 -185 -30 -270
-26 -74 -27 -118 -2 -118 11 0 27 10 38 21 10 12 62 42 114 67 78 37 109 46
177 52 67 5 87 11 112 32 17 15 45 29 63 33 24 6 61 36 133 110 55 56 110 107
122 114 33 17 94 102 151 211 30 55 59 97 71 101 26 10 46 42 70 110 61 176
63 179 92 195 42 21 75 78 99 169 37 143 52 179 85 210 43 41 83 181 102 355
5 55 12 72 45 114 22 27 46 74 56 107 9 33 20 59 23 59 20 0 15 -73 -16 -203
-41 -178 -55 -335 -55 -631 0 -248 -10 -329 -47 -397 -15 -29 -98 -119 -212
-231 -199 -196 -389 -402 -565 -612 -139 -167 -215 -249 -285 -310 -79 -69
-251 -181 -313 -204 -168 -64 -384 -190 -468 -274 -51 -50 -68 -86 -44 -95 19
-7 102 14 139 36 17 10 44 20 60 24 38 7 282 126 355 172 30 19 73 44 94 56
58 31 212 137 273 186 85 70 393 288 393 279 0 -2 -15 -51 -34 -108 -86 -256
-187 -696 -221 -958 -20 -160 -55 -264 -122 -367 -53 -81 -62 -106 -42 -118
19 -12 88 44 229 185 147 147 218 235 296 365 26 44 58 94 70 110 12 17 36 58
53 92 17 33 41 77 54 97 14 19 43 80 67 135 38 91 60 123 60 88 0 -28 74 -164
108 -200 20 -21 56 -47 80 -57 23 -10 42 -23 42 -27 0 -30 -153 -771 -170
-823 -11 -36 -30 -105 -41 -155 -34 -157 -69 -287 -105 -397 -20 -59 -32 -112
-29 -118 4 -6 0 -19 -8 -28 -17 -18 -33 -57 -81 -199 -18 -51 -35 -96 -39 -99
-9 -9 -9 -67 -1 -88 16 -42 86 2 101 63 3 14 12 33 19 41 23 27 52 162 52 240
0 41 5 93 11 115 115 424 226 903 218 942 -2 13 -1 23 4 23 4 0 14 33 23 73 9
39 27 122 41 182 14 61 32 139 39 175 23 101 -7 -130 -49 -385 -23 -137 -104
-641 -116 -720 -20 -134 -50 -290 -65 -335 -29 -86 -35 -126 -37 -232 -2 -86
1 -110 14 -123 22 -23 62 -3 83 42 25 53 38 254 20 306 -8 22 -19 45 -24 52
-9 10 19 235 34 275 3 8 12 62 20 120 8 58 21 143 29 190 8 47 25 150 37 230
12 80 30 195 41 257 10 61 19 128 19 148 0 20 4 55 10 78 5 23 12 69 16 102 6
56 7 58 16 30 9 -31 5 -187 -12 -405 -19 -245 -31 -572 -40 -1072 -8 -413 -7
-519 4 -577 16 -85 37 -121 71 -121 27 0 37 27 50 125 9 72 -24 188 -66 232
l-32 32 12 433 c19 663 29 947 40 1128 6 91 10 180 11 198 0 17 4 32 9 32 5 0
11 -226 13 -537 3 -373 10 -622 23 -811 15 -226 17 -286 7 -346 -13 -74 -3
-196 18 -236 11 -20 49 -50 63 -50 15 0 37 68 37 113 0 44 -20 116 -58 213
-21 51 -24 92 -53 594 -8 153 -13 869 -6 877 2 2 9 -83 16 -189 31 -498 47
-650 106 -1013 38 -233 97 -708 124 -984 8 -90 7 -110 -7 -145 -13 -30 -17
-71 -17 -156 0 -103 3 -121 26 -170 34 -73 86 -132 112 -128 11 2 29 16 41 31
18 25 21 41 19 113 -2 72 -7 95 -36 162 -19 42 -40 95 -47 117 -7 22 -18 54
-25 70 -8 17 -18 89 -24 160 -6 72 -20 186 -31 255 -11 69 -29 211 -40 315
-11 105 -32 262 -45 350 -30 194 -52 431 -66 705 -6 113 -19 266 -30 340 -10
74 -19 183 -19 243 0 107 0 107 25 107 19 0 25 -6 30 -32 11 -66 43 -305 50
-368 4 -36 16 -123 26 -195 58 -385 69 -472 79 -595 14 -175 38 -385 55 -480
8 -41 13 -129 13 -195 -1 -131 22 -234 61 -269 45 -41 91 36 72 122 -5 26 -15
72 -21 102 -6 30 -26 89 -45 130 -34 77 -42 120 -75 462 -5 48 -11 91 -14 96
-6 11 -59 378 -81 567 -8 77 -22 172 -30 210 -12 61 -22 141 -51 408 l-7 58
29 -7 c16 -4 30 -7 31 -8 3 -2 41 -243 48 -306 4 -30 13 -84 21 -119 8 -36 21
-111 29 -168 8 -58 17 -108 19 -112 3 -4 14 -63 26 -132 12 -68 28 -146 35
-174 8 -27 22 -90 30 -140 9 -49 34 -157 57 -240 63 -232 68 -255 68 -325 0
-67 25 -172 54 -228 32 -63 91 -30 103 56 6 47 -17 105 -72 177 -28 36 -44 73
-61 136 -12 48 -33 126 -47 175 -36 130 -70 273 -74 319 -4 36 -29 158 -83
395 -37 164 -79 396 -91 500 -6 58 -14 121 -16 140 -4 33 -1 37 49 70 32 21
67 57 90 90 42 63 81 173 76 215 -2 15 2 29 7 31 6 2 84 -108 174 -245 90
-136 190 -279 222 -317 32 -38 59 -72 59 -76 0 -15 91 -60 110 -55 38 10 44
-23 34 -208 -16 -306 2 -587 52 -818 25 -117 30 -347 10 -479 -30 -193 -35
-207 -174 -409 -35 -50 -84 -117 -110 -149 -103 -126 -207 -288 -450 -700 -71
-121 -153 -289 -198 -405 -21 -55 -39 -102 -40 -105 0 -3 -6 -17 -12 -32 -6
-15 -36 -109 -66 -210 -105 -351 -111 -525 -20 -566 57 -26 64 -19 64 63 0 70
3 81 51 174 28 55 66 117 83 138 18 21 51 67 75 103 48 73 107 147 230 288 46
54 91 109 100 123 9 14 44 57 78 94 l63 69 -1 -69 c0 -39 10 -117 23 -175 33
-152 32 -356 -5 -533 -32 -151 -32 -157 -11 -157 29 0 68 56 107 151 21 52 51
126 67 164 94 226 206 620 217 764 l6 74 21 -29 c41 -57 130 -144 175 -171 35
-21 59 -27 103 -28 32 0 58 -4 58 -9 0 -4 7 -5 16 -2 15 6 16 -6 10 -126 -4
-73 -7 -306 -8 -518 0 -364 2 -402 32 -695 34 -330 35 -411 4 -556 -24 -115
-6 -219 41 -241 22 -10 29 -9 48 11 33 33 30 166 -7 278 -22 69 -27 103 -30
220 -3 130 -11 217 -38 408 -13 97 -25 731 -18 975 5 171 5 173 12 80 4 -52
10 -223 13 -380 3 -157 10 -341 16 -410 5 -69 14 -174 19 -235 8 -103 24 -231
49 -384 9 -53 8 -75 -5 -119 -25 -85 3 -237 52 -283 27 -25 54 -19 55 13 1 23
1 23 8 -1 4 -14 12 -26 19 -29 18 -6 15 54 -8 183 -17 96 -23 113 -49 135 -23
20 -30 36 -36 85 -4 33 -16 105 -26 160 -11 55 -24 168 -29 250 -5 83 -16 231
-25 330 -16 200 -21 865 -6 865 10 0 16 -52 31 -270 10 -141 26 -264 80 -615
10 -66 32 -187 50 -270 18 -82 38 -182 45 -222 7 -40 19 -88 25 -108 7 -20 13
-80 14 -133 1 -84 5 -105 29 -154 28 -58 80 -112 101 -105 7 3 11 36 10 95 -1
51 0 92 1 92 2 0 9 -26 15 -57 6 -32 15 -68 20 -81 5 -12 14 -52 20 -90 6 -37
25 -117 41 -178 30 -108 30 -113 15 -157 -8 -25 -18 -81 -22 -124 -6 -72 -4
-83 19 -129 29 -58 120 -152 155 -161 13 -3 34 -1 47 5 19 9 25 21 30 67 17
134 -14 248 -93 343 -58 70 -49 45 -133 357 -10 39 -30 122 -43 185 -33 152
-81 361 -101 433 -8 32 -15 68 -15 81 0 12 -9 58 -19 102 -35 145 -59 258 -71
329 -7 39 -17 84 -22 100 -11 38 -58 288 -54 292 1 1 22 -75 45 -170 39 -159
63 -244 186 -647 78 -254 89 -306 90 -420 1 -150 22 -222 71 -240 70 -27 85
55 34 185 -17 42 -39 88 -50 103 -11 15 -36 91 -55 169 -19 77 -39 152 -44
165 -6 12 -24 70 -41 128 -17 58 -46 152 -65 210 -30 91 -91 313 -116 420 -7
32 -23 135 -60 396 -12 81 -8 121 10 110 5 -3 12 -34 16 -68 23 -218 119 -579
245 -923 107 -294 163 -485 171 -585 8 -103 28 -192 58 -263 22 -50 38 -64 54
-48 19 19 31 12 50 -28 9 -21 29 -44 43 -51 24 -13 27 -12 45 10 68 89 66 184
-5 279 -14 19 -26 43 -26 53 0 28 -79 228 -210 528 -121 280 -165 396 -245
650 -42 135 -87 279 -100 320 -38 121 -40 139 -17 163 23 25 68 100 83 139 15
38 37 43 50 10 6 -15 22 -56 35 -91 56 -147 212 -393 333 -525 46 -49 123
-107 186 -139 28 -14 59 -34 69 -46 24 -27 46 -27 46 -1 0 12 10 24 24 30 13
5 27 13 30 18 6 10 -37 53 -69 70 -11 5 -41 48 -66 94 -42 75 -59 120 -113
296 -9 29 -25 123 -36 210 -11 86 -31 208 -45 271 -14 63 -23 116 -21 118 10
10 133 -34 261 -94 257 -118 289 -134 410 -201 103 -58 137 -84 242 -185 94
-91 128 -118 145 -115 36 5 34 47 -8 145 -39 93 -131 247 -192 323 -126 157
-338 359 -471 450 -29 19 -66 45 -84 58 -36 26 -326 192 -335 192 -3 0 -64 32
-136 72 -116 63 -191 109 -381 233 -86 55 -133 112 -176 210 -22 50 -47 115
-54 145 -22 86 -55 210 -70 265 -7 28 -25 115 -39 195 -46 264 -54 304 -73
380 -11 42 -34 107 -51 145 -17 39 -36 90 -42 114 -7 24 -18 54 -25 65 -18 28
-23 63 -35 234 -12 165 -38 295 -81 402 -32 79 -57 113 -101 136 -38 20 -51
62 -113 378 -53 270 -61 316 -50 316 3 0 49 -22 103 -50 116 -59 380 -155 454
-165 29 -4 82 -13 118 -21 106 -22 247 -14 307 18 31 15 38 5 23 -32 -19 -46
-65 -76 -155 -102 -71 -20 -99 -23 -250 -21 -176 3 -274 16 -435 59 -46 13
-86 21 -88 19 -2 -2 14 -13 36 -24 77 -40 269 -70 452 -72 58 -1 119 -4 135
-8 l30 -7 -35 -7 c-125 -23 -285 -17 -465 19 -129 26 -158 28 -153 13 12 -40
288 -89 496 -89 101 0 123 3 221 35 134 43 197 84 233 151 34 63 35 91 4 105
-19 9 -35 8 -72 -5 -79 -27 -302 -17 -449 21 -94 23 -269 90 -400 151 -66 31
-122 58 -124 59 -3 2 -8 25 -12 51 -35 237 -52 349 -64 417 -13 71 -54 360
-115 815 -31 228 -80 657 -85 745 -3 44 -9 115 -15 158 -5 42 -15 114 -21 160
-5 45 -21 117 -35 160 -13 43 -24 85 -24 94 0 9 30 43 66 76 48 44 239 258
281 316 13 18 9 -21 -13 -115 -52 -227 -51 -211 -18 -245 l29 -31 -3 -160 c-3
-154 -2 -160 18 -165 11 -3 22 -15 25 -27 8 -41 24 -192 30 -286 8 -117 11
-130 36 -130 26 0 52 -60 69 -155 22 -122 31 -148 62 -177 25 -24 34 -44 49
-116 10 -48 18 -101 19 -118 0 -17 9 -64 19 -104 19 -70 24 -78 86 -134 45
-40 82 -85 112 -138 25 -43 60 -91 77 -106 17 -15 76 -87 130 -160 54 -72 103
-132 107 -132 17 0 20 23 8 80 -25 129 29 377 95 439 30 28 75 127 86 189 13
77 58 211 86 261 15 25 35 62 45 81 21 40 49 164 49 218 0 20 7 55 15 77 8 22
14 56 15 76 0 24 8 43 25 59 23 21 44 92 43 145 -1 11 3 66 7 123 8 101 9 103
37 118 20 10 28 20 24 31 -16 42 -18 71 -6 137 16 83 61 190 86 204 20 11 20
16 23 220 1 89 4 112 15 112 18 0 33 48 41 130 9 85 40 254 57 305 7 22 19 40
27 40 27 0 53 -51 61 -121 4 -38 11 -77 15 -87 5 -11 1 -24 -8 -35 -23 -25
-63 -120 -83 -194 -21 -80 -14 -313 11 -398 26 -83 28 -144 10 -260 -41 -273
-56 -412 -64 -605 -8 -192 -11 -216 -34 -275 -31 -77 -57 -177 -91 -355 -23
-121 -25 -155 -28 -485 -3 -377 0 -423 48 -610 23 -93 73 -232 108 -298 9 -18
28 -78 42 -134 42 -168 81 -218 172 -218 51 0 113 43 133 94 7 17 18 38 24 46
7 8 27 49 45 90 18 41 40 93 50 115 28 64 56 154 75 240 9 44 23 107 30 140 8
33 24 137 36 230 20 144 23 214 23 460 0 285 -1 293 -32 447 -17 86 -44 201
-60 255 -20 68 -32 132 -36 208 -15 234 -57 496 -117 733 -39 152 -40 159 -27
217 39 178 -25 455 -131 570 -28 31 -40 54 -45 88 -8 54 -45 167 -71 217 -16
31 -17 46 -6 165 15 168 19 183 42 190 16 5 19 16 19 68 0 80 -28 475 -34 485
-4 6 5 70 34 242 5 30 16 91 25 135 13 59 14 84 6 97 -14 22 -14 62 -1 109 7
26 36 61 98 120 92 88 307 281 405 362 55 47 69 67 46 67 -40 0 -330 -245
-421 -356 -62 -77 -108 -122 -108 -108 0 17 18 36 211 231 107 108 183 190
169 183 -14 -7 -102 -89 -196 -181 -93 -93 -173 -169 -177 -169 -4 0 -7 13 -7
29 0 19 8 34 23 43 29 20 138 126 157 154 32 47 174 164 200 165 36 1 70 15
50 22 -8 2 -31 9 -51 16 -51 16 -60 14 -114 -20z m-81 -126 c-49 -53 -110
-119 -136 -147 -25 -28 -50 -48 -54 -43 -4 4 2 17 13 30 11 12 24 31 27 42 4
11 31 40 61 64 29 24 79 70 111 102 91 92 76 59 -22 -48z m-1074 -23 c0 -5 10
-10 23 -10 29 -1 107 -36 107 -49 0 -12 6 -11 -195 -46 -119 -20 -165 -33
-224 -62 -73 -36 -181 -128 -181 -154 0 -7 28 15 63 48 35 33 88 72 122 88 74
34 223 75 278 75 23 0 70 6 104 14 57 11 65 11 78 -4 14 -15 14 -22 -4 -64
-19 -44 -22 -46 -60 -46 -56 0 -140 -34 -224 -90 -69 -47 -164 -134 -122 -112
11 5 29 20 40 32 31 35 134 101 189 123 46 18 136 38 136 31 0 -2 -8 -20 -17
-40 -15 -30 -31 -43 -89 -69 -39 -18 -88 -38 -110 -45 -92 -30 -238 -115 -317
-185 -91 -80 -125 -115 -111 -115 5 0 52 38 103 85 77 71 115 96 220 148 142
71 271 120 271 103 0 -6 -8 -26 -18 -44 -14 -29 -35 -41 -139 -87 -166 -71
-345 -193 -496 -336 -66 -62 -131 -131 -145 -153 l-26 -41 -6 35 c-3 20 -10
41 -14 48 -10 16 113 277 163 347 58 81 140 163 226 225 92 66 174 115 181
108 2 -3 -31 -36 -73 -73 -84 -74 -152 -144 -153 -159 0 -5 31 20 68 55 92 86
169 150 212 176 53 32 209 93 239 93 14 0 33 5 41 10 11 7 2 10 -33 10 -55 0
-268 -68 -337 -107 -111 -64 -224 -150 -299 -228 -76 -80 -81 -83 -81 -56 0
20 17 51 53 97 29 38 63 89 76 114 36 70 68 108 127 147 30 20 54 42 54 49 0
19 59 64 125 95 61 29 175 41 175 19z m680 -61 c105 -24 173 -106 168 -201
l-3 -53 -46 90 c-26 50 -59 101 -73 114 -32 30 -34 20 -2 -22 41 -56 116 -212
116 -243 0 -17 -7 -54 -16 -83 -14 -49 -14 -54 2 -72 13 -14 15 -28 9 -65 -14
-93 -18 -93 -63 14 -23 54 -42 104 -42 111 0 7 -4 10 -10 6 -11 -7 -11 -5 47
-152 l44 -113 -17 -92 c-21 -120 -28 -132 -44 -82 -30 94 -173 324 -200 324
-5 0 20 -43 55 -95 36 -53 65 -100 65 -106 0 -6 20 -49 43 -97 48 -95 58 -133
62 -233 2 -36 9 -93 15 -127 18 -91 7 -95 -32 -12 -19 41 -52 97 -73 125 -21
27 -56 87 -77 133 -21 46 -62 118 -91 160 -78 115 -76 106 -26 98 53 -9 85
-37 145 -128 24 -38 45 -68 46 -68 2 0 4 17 5 37 1 28 -6 48 -33 85 -20 26
-48 57 -64 68 -34 24 -150 195 -179 264 -21 47 -155 193 -211 228 -25 16 -25
16 -7 44 10 16 21 37 24 46 7 22 57 42 86 34 14 -3 58 -38 98 -78 74 -73 139
-124 139 -110 0 10 -113 120 -173 167 l-49 39 49 13 c153 44 229 51 313 32z
m-447 -234 c52 -40 152 -154 162 -185 4 -12 29 -54 56 -95 27 -41 49 -77 49
-79 0 -3 -8 -3 -17 1 -14 5 -12 0 6 -20 l24 -27 -30 0 c-17 0 -38 -3 -46 -6
-9 -3 -27 13 -50 45 -46 64 -139 137 -185 146 -20 4 -54 16 -76 28 -23 12 -42
23 -44 24 -2 0 2 19 9 42 9 32 17 41 34 41 32 0 98 -52 143 -112 22 -29 52
-64 68 -78 l28 -25 -17 25 c-10 14 -33 48 -53 77 -30 43 -98 102 -163 142 -14
9 -4 38 27 74 20 23 22 22 75 -18z m-207 -187 c-8 -13 -20 -44 -26 -70 -10
-36 -18 -49 -39 -56 -37 -13 -172 -122 -261 -212 -232 -232 -410 -583 -411
-807 0 -65 -3 -77 -33 -120 -18 -26 -39 -66 -48 -88 -9 -22 -26 -62 -38 -90
l-22 -50 -19 24 c-15 19 -19 39 -19 105 0 44 5 110 11 146 15 95 91 256 196
417 10 15 13 24 7 21 -18 -12 -96 -129 -141 -213 -42 -78 -43 -79 -37 -37 4
25 1 67 -6 98 -16 65 -3 124 54 244 84 175 158 274 305 407 145 129 276 211
471 293 68 29 81 26 56 -12z m137 -61 c77 -29 154 -89 199 -156 17 -25 43 -59
58 -76 48 -53 128 -178 161 -250 30 -66 71 -196 65 -203 -2 -2 -18 22 -35 53
-47 82 -47 66 -1 -26 68 -133 128 -291 140 -361 10 -65 4 -137 -10 -121 -5 4
-31 58 -58 120 -59 133 -135 262 -175 300 -25 24 -23 18 16 -42 49 -77 131
-232 190 -363 33 -71 37 -88 31 -127 -3 -25 -10 -48 -15 -50 -12 -8 -34 41
-58 133 -24 96 -49 146 -139 292 -72 116 -122 183 -129 176 -3 -3 6 -20 20
-38 21 -28 107 -165 179 -285 23 -39 53 -125 62 -178 l7 -40 -34 60 c-19 33
-37 76 -41 96 -13 72 -137 213 -217 248 -37 17 -59 38 -107 103 -115 159 -272
319 -312 318 -10 -1 -7 -7 10 -21 89 -71 132 -114 214 -213 126 -151 154 -204
68 -125 -105 96 -238 178 -288 179 -20 0 -22 7 -26 96 -5 88 7 192 26 222 18
30 171 -114 269 -255 32 -45 63 -85 68 -89 39 -24 -143 227 -207 286 -27 25
-66 54 -86 65 -22 11 -38 27 -38 37 0 14 24 76 37 97 1 2 22 -7 47 -19 61 -29
161 -139 238 -261 63 -100 97 -136 53 -56 -97 173 -234 327 -306 342 -37 8
-38 34 -4 93 13 24 21 50 18 59 -8 20 13 16 110 -20z m-217 -215 c-14 -55 -30
-133 -36 -173 -16 -119 -19 -126 -53 -147 -43 -25 -303 -268 -353 -329 -21
-26 39 26 133 116 95 90 188 174 207 188 l36 24 0 -33 c0 -18 -7 -77 -14 -131
-15 -106 -12 -101 -141 -252 -142 -165 -188 -236 -259 -398 -124 -280 -156
-470 -139 -832 l10 -200 -29 -85 c-35 -105 -74 -266 -83 -343 -4 -32 -8 -57
-10 -55 -3 2 -11 46 -19 98 -12 73 -20 98 -36 109 -26 18 -26 64 0 247 16 115
49 260 84 369 3 11 -5 -3 -18 -30 -14 -28 -37 -95 -52 -150 -14 -55 -28 -104
-31 -108 -7 -11 -43 38 -43 59 0 10 14 81 31 158 l32 140 -18 53 c-16 45 -17
72 -11 200 9 184 25 267 69 363 19 41 37 86 42 100 4 14 19 41 34 60 35 44 64
100 57 108 -3 3 -6 0 -6 -6 0 -7 -4 -12 -10 -12 -12 0 -13 73 0 120 26 103 43
147 103 270 59 120 103 190 210 325 95 120 328 323 335 291 2 -7 -8 -59 -22
-114z m-2360 -250 c5 -5 36 -14 69 -21 33 -7 75 -19 93 -27 18 -8 45 -14 60
-14 27 0 137 -43 243 -94 l54 -27 -34 32 c-30 28 -31 31 -10 24 50 -14 186
-90 234 -130 28 -23 66 -53 86 -66 20 -13 59 -51 86 -84 85 -101 147 -151 92
-74 -43 60 -1 34 159 -99 110 -92 143 -111 102 -59 -27 34 -258 207 -277 207
-8 0 -47 30 -87 68 -142 131 -206 183 -273 221 -73 41 -145 60 -166 42 -9 -7
-28 -3 -66 15 -45 20 -51 26 -41 39 14 17 46 20 54 6 3 -5 22 -12 41 -15 48
-9 189 -69 236 -101 21 -14 47 -25 58 -25 24 0 160 -107 265 -209 93 -90 97
-81 8 19 -63 69 -65 86 -7 53 45 -26 268 -261 298 -313 25 -44 25 -46 8 -69
l-18 -23 -29 30 c-42 43 -187 162 -198 162 -6 0 37 -47 94 -105 77 -79 101
-108 92 -117 -8 -8 -27 3 -74 44 -136 118 -171 118 -47 -1 76 -72 83 -81 69
-95 -14 -14 -19 -14 -47 7 -17 12 -70 57 -119 100 -49 43 -109 91 -134 105
-25 14 -93 71 -152 125 -97 91 -224 187 -246 187 -4 0 -50 32 -101 70 -115 88
-171 116 -252 130 -144 23 -155 3 -13 -23 45 -9 101 -25 125 -37 64 -32 164
-105 238 -172 60 -54 92 -74 75 -46 -5 7 16 -5 46 -27 62 -45 333 -318 338
-340 3 -12 -7 -11 -50 4 -84 30 -89 33 -84 46 2 7 -14 31 -37 53 -47 44 -293
232 -305 232 -5 0 -22 13 -40 28 -32 28 -244 153 -316 185 -105 47 -161 60
-271 63 -141 4 -135 4 -235 16 -83 11 -165 5 -156 -11 3 -4 54 -11 113 -14 92
-5 118 -10 178 -37 39 -17 119 -51 178 -76 59 -24 121 -54 137 -66 16 -12 32
-19 35 -16 15 14 -121 85 -309 162 -22 9 -37 18 -35 20 2 2 51 -2 109 -10 158
-20 361 -105 440 -184 11 -11 38 -29 62 -41 41 -21 154 -96 248 -165 128 -94
159 -120 159 -131 1 -23 -19 -14 -52 22 -43 47 -330 235 -444 292 -104 52
-138 54 -41 3 108 -57 458 -292 458 -307 0 -8 15 -21 33 -29 l32 -15 -35 5
c-19 3 -78 14 -131 25 -52 11 -146 25 -207 30 -122 11 -135 16 -202 72 -148
124 -620 344 -620 290 0 -5 15 -12 33 -16 17 -4 46 -13 62 -20 17 -7 68 -29
114 -49 107 -45 310 -157 380 -210 l55 -41 -75 -6 c-41 -4 -127 -7 -192 -8
l-119 -1 -43 38 c-78 68 -261 190 -333 220 -146 62 -273 84 -384 66 -75 -13
-36 -24 80 -24 76 0 136 -5 169 -15 116 -35 244 -105 390 -216 34 -26 67 -49
75 -52 24 -10 -14 -27 -61 -27 -36 0 -59 10 -130 55 -118 75 -184 99 -347 130
-191 35 -194 36 -194 26 0 -10 40 -20 205 -51 125 -24 224 -60 308 -114 77
-49 75 -55 -15 -72 -32 -5 -52 1 -130 40 -95 46 -329 118 -463 140 -75 13
-241 5 -286 -14 -18 -7 -11 -8 33 -4 177 19 292 3 510 -70 42 -14 82 -26 88
-26 12 0 60 -19 118 -47 18 -9 31 -21 29 -27 -4 -11 -83 -31 -227 -59 l-86
-17 -96 35 c-53 19 -147 45 -210 59 l-113 26 135 -6 c74 -3 155 -8 180 -11 25
-3 42 -3 39 1 -3 3 -59 13 -125 22 -277 37 -664 -11 -704 -87 -14 -26 2 -31
36 -10 53 32 158 60 249 67 130 9 406 -39 533 -92 41 -17 35 -26 -30 -44 -29
-8 -44 -7 -66 4 -72 37 -189 51 -422 50 -124 0 -242 -5 -263 -10 -26 -6 48 -9
235 -9 227 0 286 -3 353 -18 44 -10 84 -22 89 -27 6 -6 -13 -19 -48 -35 -31
-14 -59 -25 -63 -25 -3 0 -46 -16 -96 -36 l-91 -37 -50 19 c-44 16 -80 19
-261 19 -204 0 -299 -11 -332 -38 -28 -21 -10 -23 60 -4 60 17 106 20 282 21
276 1 314 -9 214 -60 -46 -23 -59 -25 -128 -20 -42 4 -164 11 -271 16 -107 5
-212 12 -232 15 -25 5 -38 3 -38 -4 0 -6 13 -11 29 -11 58 0 39 -18 -37 -34
-43 -9 -88 -19 -100 -23 -20 -5 -22 -2 -22 29 0 41 12 53 130 130 60 40 92 69
110 98 34 58 62 84 107 99 37 12 200 60 278 82 22 7 35 14 28 16 -16 6 -212
-44 -292 -74 -35 -13 -66 -21 -69 -18 -8 8 10 37 29 46 8 3 32 16 54 27 120
62 307 84 398 48 26 -10 50 -16 53 -14 3 3 -15 14 -40 23 -53 20 -59 35 -17
35 17 0 33 5 36 10 10 16 -58 11 -205 -14 -74 -13 -136 -22 -138 -20 -10 8
136 76 213 100 79 24 113 28 275 33 147 5 175 8 137 15 -74 13 -332 1 -405
-19 -35 -9 -66 -15 -68 -12 -18 17 48 75 106 92 22 7 23 6 11 -9 -23 -28 -5
-30 69 -6 65 21 83 22 233 17 89 -3 173 -8 187 -12 20 -5 22 -4 9 4 -27 17
-198 33 -323 29 l-118 -3 59 28 c55 27 63 28 153 23 52 -4 108 -9 124 -13 18
-4 27 -2 23 4 -4 6 -40 16 -82 22 l-75 12 27 36 c19 24 29 31 32 22 4 -10 26
-14 71 -14 36 0 119 -11 185 -24 158 -31 193 -36 180 -23 -13 13 -119 38 -215
52 -41 6 -86 13 -100 17 -24 6 -24 6 8 13 18 4 106 13 195 20 l162 12 125 -31
c100 -24 298 -83 398 -118 12 -4 14 -3 7 5 -16 17 -168 70 -309 107 -70 19
-131 36 -133 39 -2 2 10 7 27 11 17 4 34 13 36 20 5 12 87 22 249 30 100 6
231 30 258 48 25 18 48 21 63 9z m2328 -218 c-18 -194 -37 -284 -28 -134 8
152 29 318 39 308 3 -2 -2 -80 -11 -174z m818 -9 c39 -75 78 -190 78 -226 0
-26 -22 -59 -40 -59 -12 0 -36 74 -50 155 -7 39 -21 99 -31 134 -35 117 -18
116 43 -4z m-709 8 c36 -32 89 -84 116 -116 28 -32 51 -52 51 -44 0 16 -78
110 -128 154 -52 45 -30 41 27 -5 25 -21 66 -51 89 -67 69 -46 200 -212 255
-320 25 -51 78 -207 92 -275 14 -67 12 -90 -4 -49 -63 164 -161 347 -207 390
-29 26 -26 17 16 -46 91 -137 204 -399 216 -502 8 -67 -5 -69 -41 -5 -50 86
-149 232 -158 232 -9 0 -3 -12 29 -55 66 -89 204 -354 204 -392 0 -13 5 -23
10 -23 12 0 4 63 -11 92 -5 9 -11 88 -13 175 -7 236 -57 414 -163 572 -41 61
-53 89 -34 77 5 -4 11 -1 13 5 5 16 86 -52 140 -118 31 -36 44 -60 36 -64 -7
-5 0 -22 21 -51 17 -24 53 -93 80 -153 48 -107 49 -111 31 -130 -10 -11 -20
-36 -23 -55 -2 -19 -16 -102 -31 -183 -14 -82 -26 -161 -26 -177 0 -15 -7 -34
-17 -41 -9 -8 -24 -31 -33 -51 l-17 -37 -95 192 c-53 105 -105 201 -117 211
-12 11 4 -27 41 -95 33 -63 76 -148 95 -189 19 -41 45 -97 58 -125 40 -88 42
-236 2 -174 -19 29 -77 164 -77 179 0 15 -52 83 -114 147 -39 41 -59 54 -100
64 -45 10 -64 24 -156 113 -95 91 -140 124 -192 140 -15 4 -18 17 -18 76 0 38
4 70 9 70 9 0 117 -118 189 -205 17 -22 32 -36 32 -31 0 17 -83 120 -160 201
l-77 80 6 112 c4 62 9 115 13 118 15 15 53 -11 131 -89 45 -45 91 -98 102
-118 48 -87 148 -248 152 -245 5 6 -82 161 -152 268 -65 98 -142 176 -203 205
-19 9 -31 21 -29 28 3 7 11 47 18 89 7 43 16 77 20 77 18 0 137 -145 207 -252
80 -122 167 -261 191 -306 8 -16 16 -22 19 -14 2 7 -21 51 -51 100 -30 48 -67
110 -83 137 -61 108 -145 223 -214 293 l-72 73 7 94 c5 64 11 95 19 95 7 0 42
-26 79 -57z m-1537 1 c107 -44 142 -64 115 -64 -8 0 17 -23 55 -51 106 -79
194 -159 238 -216 22 -29 42 -51 43 -49 19 19 -126 183 -226 256 -33 24 -59
46 -57 48 2 2 28 -10 57 -27 30 -16 77 -42 104 -57 65 -35 145 -104 181 -155
23 -34 25 -42 13 -50 -18 -11 -26 -11 -34 1 -10 16 -24 2 -18 -18 2 -11 -6
-25 -25 -39 l-30 -22 -38 62 c-46 74 -165 201 -248 264 -34 25 -92 60 -131 78
-38 18 -81 44 -94 59 -14 14 -22 26 -19 26 3 0 54 -21 114 -46z m514 -245 c0
-5 14 -15 30 -24 29 -15 39 -38 22 -49 -5 -3 -37 24 -73 60 l-64 66 43 -22
c23 -12 42 -26 42 -31z m838 -21 c-5 -63 -5 -63 -80 -140 -42 -42 -102 -112
-135 -155 -89 -119 -194 -342 -193 -412 1 -15 11 4 25 48 43 133 127 288 219
401 141 177 160 185 149 67 l-6 -66 -94 -108 c-125 -142 -164 -195 -218 -289
-42 -72 -125 -299 -125 -341 -1 -10 -7 -29 -16 -43 -13 -23 -14 -16 -9 80 9
141 21 219 52 319 25 83 99 265 142 349 44 86 260 352 286 352 4 0 5 -28 3
-62z m-743 -126 c-5 -14 -7 -14 -15 -2 -5 9 -4 20 3 28 14 17 22 0 12 -26z
m-23 -48 c26 -45 7 -65 -21 -21 -11 19 -21 40 -21 47 0 20 24 5 42 -26z m-528
-23 c67 -53 104 -91 90 -91 -40 0 -86 24 -100 53 -9 18 -28 44 -42 60 -40 42
-16 32 52 -22z m-854 -13 c-45 -38 -399 -308 -404 -308 -5 0 105 104 250 237
88 81 117 102 145 105 48 5 49 0 9 -34z m-100 24 c0 -5 -74 -76 -165 -158
-173 -156 -305 -253 -415 -304 -36 -17 -91 -45 -123 -61 -52 -27 -179 -79
-193 -79 -3 0 17 26 45 59 68 78 65 89 -6 19 -63 -61 -329 -265 -381 -292 -33
-17 -234 -66 -270 -66 -29 0 -37 32 -14 50 11 8 57 44 103 80 97 75 368 342
427 421 22 30 84 97 139 151 78 76 106 98 136 103 21 4 41 5 44 1 4 -3 -61
-72 -143 -152 -82 -80 -144 -144 -137 -142 18 5 217 184 279 251 40 43 66 62
92 68 20 4 38 6 41 4 11 -12 -59 -93 -173 -200 -69 -65 -124 -121 -121 -123 5
-6 220 184 267 236 20 22 44 54 52 70 13 25 23 31 66 37 28 4 54 5 56 2 11
-11 -21 -55 -95 -131 -42 -43 -66 -73 -54 -67 24 12 128 112 180 172 27 32 38
37 93 43 34 4 64 5 67 2 3 -2 -31 -41 -74 -87 -79 -83 -197 -179 -429 -348
-71 -52 -124 -96 -117 -98 6 -2 67 38 135 88 67 51 166 125 218 163 52 39 146
122 208 183 l114 113 74 0 c41 0 74 -4 74 -8z m280 2 c0 -21 -40 -59 -188
-175 -92 -72 -182 -139 -199 -147 -18 -9 -33 -19 -33 -24 0 -14 91 38 160 92
36 28 91 69 124 93 79 57 154 125 161 147 5 14 14 17 53 13 75 -7 78 -10 51
-40 -13 -14 -159 -127 -324 -251 -165 -123 -302 -229 -304 -235 -2 -7 7 -4 20
6 13 10 36 25 52 35 15 9 67 45 115 80 48 34 132 95 187 134 143 103 224 166
270 210 31 30 48 38 77 38 20 0 39 -4 42 -9 7 -12 -60 -68 -231 -195 -73 -54
-133 -100 -133 -102 0 -17 298 192 365 257 35 33 44 37 73 31 18 -4 34 -11 35
-17 1 -12 -201 -169 -298 -231 -38 -25 -121 -75 -183 -112 -62 -37 -109 -68
-104 -70 11 -3 235 125 342 196 81 54 174 122 250 184 33 27 90 39 90 18 0
-21 -221 -185 -338 -251 -30 -17 -51 -33 -49 -36 15 -14 291 166 384 250 28
27 36 29 77 23 25 -4 48 -11 51 -16 3 -4 -43 -36 -103 -71 -171 -101 -313
-191 -308 -196 6 -6 79 32 167 88 42 27 80 49 86 49 5 0 39 19 74 42 82 53
143 80 163 72 9 -3 16 -9 16 -13 0 -8 -95 -77 -187 -136 -35 -22 -63 -44 -63
-48 0 -9 25 3 85 41 25 16 35 19 26 8 -8 -9 -12 -19 -9 -21 7 -7 108 45 108
56 0 12 -6 11 -43 -6 -31 -15 -32 -15 -9 2 13 10 46 37 74 61 34 30 55 41 67
36 9 -4 31 -8 48 -10 45 -4 75 -22 66 -38 -29 -48 -101 -135 -115 -139 -9 -3
-21 -22 -28 -45 -12 -47 -60 -93 -186 -179 -67 -45 -93 -57 -135 -61 -64 -6
-60 5 19 49 100 57 292 208 266 209 -6 0 -45 -27 -86 -60 -97 -77 -236 -164
-302 -189 -28 -10 -78 -22 -111 -26 l-60 -6 90 48 c111 61 241 146 227 151 -5
1 -54 -24 -108 -56 -191 -115 -207 -121 -428 -157 -257 -43 -326 -51 -326 -37
0 6 39 32 88 58 95 52 278 170 288 186 9 13 -21 -3 -146 -80 -128 -79 -237
-134 -310 -155 -30 -9 -116 -34 -191 -57 -148 -44 -164 -46 -172 -27 -3 9 8
18 31 26 43 15 279 148 287 162 11 17 -8 9 -125 -56 -179 -99 -439 -185 -564
-185 l-69 0 44 31 c24 18 78 64 119 103 71 67 190 139 206 123 3 -3 -4 -20
-16 -37 -12 -17 -20 -34 -17 -36 10 -10 48 36 53 65 5 23 22 38 87 76 45 26
109 65 143 86 61 39 80 47 69 29 -15 -24 17 -6 91 50 43 33 126 95 184 137 58
42 135 103 173 135 64 55 70 58 122 58 30 0 55 -3 55 -6z m1170 -45 c44 -72
32 -82 -18 -15 -47 63 -48 66 -28 66 8 0 28 -23 46 -51z m-54 -11 c38 -43 84
-122 84 -144 0 -30 -18 -13 -110 110 -17 21 -27 42 -24 47 9 15 30 10 50 -13z
m-16 -95 c60 -67 98 -123 82 -123 -12 0 -56 32 -65 48 -5 7 -29 38 -53 68 -43
53 -53 74 -35 74 5 0 37 -30 71 -67z m841 -29 c-6 -67 -9 -74 -58 -130 -165
-191 -300 -472 -334 -694 -6 -41 -17 -90 -25 -109 -16 -39 -17 -51 -5 -51 5 0
15 17 22 38 52 161 344 642 389 642 6 0 10 -36 10 -81 l0 -81 -73 -92 c-169
-210 -280 -418 -337 -630 -11 -43 -29 -95 -39 -115 -11 -20 -33 -79 -50 -131
-40 -126 -66 -348 -37 -319 3 2 12 60 21 128 17 133 42 226 80 306 14 28 38
100 55 160 33 118 128 323 202 435 59 89 165 220 172 213 3 -4 6 -26 6 -50 0
-34 -7 -53 -35 -89 -102 -133 -217 -457 -259 -730 -34 -216 -7 -627 45 -697
20 -28 21 -33 9 -111 -6 -44 -14 -90 -17 -101 -4 -15 -2 -17 6 -9 6 6 18 51
27 100 22 128 77 291 142 424 l57 115 3 -305 2 -305 -30 -61 c-16 -34 -33 -82
-36 -108 -11 -78 -22 -51 -26 67 -5 123 9 233 43 323 29 76 17 91 -15 20 -42
-93 -48 -140 -41 -329 3 -94 6 -207 5 -249 -1 -93 15 -103 23 -15 13 127 53
306 66 291 4 -5 13 -63 19 -129 14 -150 41 -295 54 -295 6 0 7 11 3 28 -24 94
-34 282 -35 618 0 198 3 364 7 368 4 3 22 -8 40 -26 49 -47 52 -26 4 35 l-41
54 0 141 c0 77 4 143 9 146 5 3 12 34 16 68 l8 63 39 -45 c56 -62 135 -193
222 -369 42 -83 78 -151 81 -151 8 0 -6 33 -86 195 -82 168 -150 279 -218 357
-39 44 -41 49 -41 112 0 36 2 66 5 66 16 0 74 -83 182 -258 8 -13 17 -21 20
-18 7 7 -75 143 -147 244 -52 72 -60 89 -60 128 0 24 4 44 9 44 24 0 157 -186
230 -321 56 -105 81 -179 91 -279 22 -216 31 -283 36 -292 21 -34 24 83 6 217
-18 129 -21 168 -13 159 22 -26 101 -219 101 -247 0 -36 -12 -107 -35 -212 -8
-38 -15 -81 -15 -95 0 -28 -34 -90 -50 -90 -6 0 -16 12 -22 28 -22 50 -80 153
-84 149 -3 -2 17 -48 43 -102 l47 -98 -16 -62 c-9 -34 -23 -77 -31 -96 l-14
-34 -26 50 c-33 62 -34 56 -4 -19 l24 -57 -28 -96 c-20 -67 -42 -117 -75 -167
l-48 -71 -23 54 c-25 57 -78 131 -94 131 -5 0 6 -21 25 -47 55 -76 89 -162 77
-193 -22 -55 -43 -159 -49 -239 l-7 -85 -74 100 c-41 54 -91 117 -111 139 -62
68 -90 127 -106 222 -16 94 -10 177 23 331 8 40 13 75 10 78 -2 3 -15 -32 -28
-78 -19 -69 -23 -107 -24 -224 l0 -141 -39 31 c-76 61 -84 71 -95 132 -6 32
-16 75 -21 94 -24 92 -22 218 6 375 4 23 3 26 -5 15 -6 -8 -15 -47 -22 -86
l-11 -71 -33 15 c-29 13 -34 22 -49 86 -9 39 -21 99 -26 133 -11 73 -34 123
-60 130 -20 5 -25 22 -35 116 -5 45 -3 58 8 63 11 4 17 28 22 77 9 99 52 288
82 367 24 61 26 75 24 217 -2 136 0 162 23 247 67 243 136 408 219 518 48 64
218 260 222 256 2 -2 0 -35 -4 -74z m-3061 57 c0 -5 -16 -27 -37 -48 -20 -21
-74 -80 -120 -130 -88 -97 -256 -239 -323 -273 -48 -24 -51 -25 -43 -3 4 11
-10 4 -38 -18 -24 -20 -55 -42 -68 -49 -28 -14 -163 -61 -167 -57 -7 7 151
159 220 212 90 69 276 247 276 265 0 11 118 70 141 70 14 0 -34 -66 -113 -154
-34 -38 -52 -64 -41 -58 23 13 117 113 166 179 20 27 47 48 72 57 47 17 75 20
75 7z m2159 -42 c18 -22 31 -42 29 -45 -11 -11 -66 20 -77 42 -26 58 3 60 48
3z m-78 -17 c-9 -3 -8 -9 4 -22 9 -10 13 -20 8 -23 -4 -3 -30 -17 -58 -32
l-49 -28 18 29 c41 65 68 94 79 87 8 -5 8 -8 -2 -11z m1016 -44 c-3 -8 -6 -5
-6 6 -1 11 2 17 5 13 3 -3 4 -12 1 -19z m-3436 -15 c-18 -33 -273 -272 -318
-297 -8 -4 -45 -37 -81 -72 -36 -35 -84 -76 -106 -91 -23 -16 -53 -39 -67 -53
-14 -14 -65 -47 -112 -74 -89 -50 -117 -77 -49 -49 33 14 80 42 183 110 31 20
155 63 183 63 5 0 -45 -41 -112 -91 -114 -85 -125 -91 -189 -100 -46 -7 -94
-6 -149 1 -55 7 -90 7 -108 0 -38 -14 -32 -2 26 57 77 78 50 76 -31 -2 -56
-53 -79 -69 -113 -76 -58 -11 -138 -11 -138 0 0 16 70 71 98 76 15 3 54 15 87
26 128 45 155 53 160 47 4 -3 -1 -22 -9 -42 -8 -19 -11 -38 -7 -41 12 -7 26
14 39 60 12 43 71 97 195 179 55 36 100 83 150 156 16 24 48 45 117 77 l95 44
-115 -116 c-63 -64 -152 -148 -197 -187 -46 -40 -83 -76 -83 -80 0 -16 131
100 290 257 156 153 187 176 309 220 52 19 64 19 52 -2z m2483 -12 c5 -7 -78
-65 -211 -147 -10 -7 -15 -15 -12 -18 8 -8 166 73 213 109 35 27 101 36 94 13
-3 -7 -76 -55 -164 -105 -87 -51 -178 -106 -201 -123 -24 -16 -43 -28 -43 -25
0 2 29 48 64 102 66 102 133 164 206 190 43 15 47 15 54 4z m913 -118 l-5 -88
-51 -53 c-53 -56 -195 -272 -267 -407 -41 -75 -56 -80 -34 -11 5 17 19 63 30
101 26 85 92 225 151 322 52 84 159 223 172 223 6 0 8 -36 4 -87z m-769 41
c-2 -10 -88 -63 -203 -126 -110 -60 -210 -120 -222 -133 -25 -28 -83 -35 -83
-11 0 8 5 18 10 21 6 3 10 -1 10 -9 0 -23 7 -20 58 25 41 36 402 248 425 249
5 0 7 -7 5 -16z m-3135 -21 l129 -6 -109 -43 c-59 -24 -146 -64 -193 -88 -47
-25 -128 -62 -180 -82 -52 -19 -123 -53 -157 -75 -34 -21 -74 -39 -87 -39 -14
0 -37 -4 -51 -10 l-26 -10 7 48 c4 30 16 57 33 76 36 39 173 101 271 123 8 2
65 8 125 14 61 6 121 15 135 20 38 14 -164 2 -257 -16 -43 -8 -82 -15 -88 -15
-16 1 46 49 85 67 100 44 135 48 363 36z m3197 -16 c0 -17 -102 -83 -241 -155
-63 -33 -126 -72 -142 -87 -25 -24 -30 -26 -63 -15 -44 15 -53 8 162 123 89
47 184 99 210 116 53 33 74 38 74 18z m-3637 -33 c-26 -21 -65 -52 -85 -70
-37 -33 -89 -64 -107 -64 -12 0 12 84 30 107 19 22 133 61 187 62 20 1 16 -5
-25 -35z m4496 -37 c70 -51 181 -166 235 -242 70 -97 124 -216 64 -139 -30 37
-34 21 -5 -18 41 -55 65 -111 97 -229 34 -122 36 -129 52 -129 6 0 8 13 3 37
-6 32 -5 35 9 24 11 -9 8 5 -10 51 -14 34 -37 104 -51 153 -23 82 -101 246
-124 260 -14 9 -11 35 4 35 25 0 95 -58 135 -112 22 -29 70 -111 107 -183 l66
-130 -19 -35 c-10 -19 -29 -63 -42 -97 -12 -35 -28 -63 -36 -63 -14 0 -19 -13
-30 -74 l-7 -39 -32 89 c-39 108 -185 408 -255 523 -67 112 -184 267 -212 282
-22 11 -22 11 -8 -7 9 -10 32 -38 52 -60 89 -102 291 -442 254 -428 -9 3 5
-24 30 -63 55 -81 90 -155 134 -283 32 -93 33 -98 26 -215 -12 -234 -17 -265
-37 -265 -12 0 -19 -7 -19 -20 0 -27 -17 -25 -26 3 -4 12 -49 109 -101 215
-53 106 -92 196 -89 199 18 18 107 -101 190 -252 45 -81 44 -80 51 -73 9 9
-123 265 -156 302 -16 19 -51 45 -77 57 -26 12 -51 29 -55 36 -25 40 -117 155
-163 203 -46 47 -54 61 -54 93 0 24 5 37 13 37 32 0 133 -126 241 -303 36 -59
24 -18 -15 56 -52 95 -157 229 -204 259 l-35 23 0 78 c0 42 4 77 9 77 22 0
152 -188 231 -335 39 -71 80 -135 80 -124 0 3 -18 40 -41 84 -71 140 -161 284
-221 353 -52 60 -57 72 -58 113 0 53 10 109 19 109 21 -2 240 -323 241 -354 0
-5 36 -75 79 -155 65 -119 112 -227 157 -360 2 -8 6 -12 9 -10 18 18 -77 257
-147 371 -25 40 -67 117 -93 172 -60 123 -151 262 -218 333 l-52 55 1 67 c0
115 8 118 103 48z m-870 -23 c-21 -25 -201 -122 -258 -138 -100 -29 -87 -16
59 60 79 41 158 85 175 98 23 19 31 21 33 9 2 -7 -2 -21 -9 -29z m-3189 7 c0
-25 -125 -159 -138 -147 -9 10 68 122 95 138 33 19 43 21 43 9z m3199 -170
c-10 -107 -10 -135 1 -162 13 -31 13 -32 -26 -62 -60 -47 -164 -156 -238 -250
-81 -104 -104 -113 -135 -52 -25 50 -25 55 -8 55 8 0 43 35 79 78 60 70 137
148 112 112 -30 -43 -123 -157 -137 -169 -18 -14 -24 -46 -7 -36 32 20 291
360 318 418 17 37 27 67 23 67 -12 0 -112 -109 -271 -297 l-144 -171 -62 58
c-69 64 -116 85 -176 77 -39 -5 -40 -5 -34 21 16 67 106 283 121 288 6 3 40
-1 75 -7 36 -6 76 -11 90 -12 33 -1 148 29 228 59 37 14 84 24 116 24 66 0 80
12 30 26 l-38 10 45 31 c24 17 46 30 47 28 2 -2 -2 -62 -9 -134z m-3310 98
c-43 -61 -133 -150 -176 -175 -53 -32 -143 -67 -143 -56 0 4 27 34 60 67 33
32 57 61 55 63 -3 3 -47 -36 -99 -86 -53 -51 -103 -92 -112 -92 -19 0 -17 3
56 85 41 47 25 34 -90 -66 -130 -114 -139 -119 -209 -119 -35 0 -61 4 -61 10
0 16 81 100 124 129 21 14 50 34 65 43 45 31 56 19 13 -14 -65 -52 -114 -128
-82 -128 5 0 12 11 16 24 6 23 80 89 179 158 28 19 97 52 152 73 56 20 135 54
175 75 91 48 106 50 77 9z m536 -70 c-44 -41 -61 -47 -50 -18 5 13 69 55 87
58 4 1 -13 -18 -37 -40z m-98 -51 c-33 -50 -127 -145 -178 -180 -39 -27 -72
-40 -118 -47 -36 -6 -67 -9 -69 -7 -2 3 32 31 75 65 43 33 102 79 131 103 48
39 161 100 171 92 2 -2 -3 -14 -12 -26z m513 12 c0 -8 -32 -37 -174 -156 -22
-19 -32 -22 -42 -13 -9 7 -29 9 -54 5 -22 -3 -40 -3 -40 1 1 9 114 96 163 126
16 10 54 24 85 32 32 7 58 14 60 14 1 1 2 -3 2 -9z m4204 -120 c8 -52 17 -122
20 -155 7 -84 -8 -28 -28 100 -9 55 -18 116 -22 135 -5 25 -4 32 4 25 6 -6 18
-53 26 -105z m-75 -122 c0 -117 -4 -185 -9 -173 -10 23 -13 349 -3 358 3 4 8
7 10 7 2 0 3 -87 2 -192z m-59 18 c0 -113 12 -249 27 -301 3 -13 2 -17 -4 -10
-6 6 -18 40 -27 77 -18 77 -23 358 -6 358 6 0 10 -48 10 -124z m-19 -291 c35
-90 31 -204 -21 -495 -23 -129 -44 -287 -47 -350 -4 -68 -9 -106 -14 -95 -4
11 -5 45 -3 75 2 30 8 129 15 220 6 91 20 208 31 260 22 100 33 167 44 262 5
45 2 68 -14 110 -32 80 -55 355 -34 405 4 10 10 -61 13 -157 5 -151 9 -183 30
-235z m-2801 365 c19 -6 11 -8 -35 -10 -33 -1 -82 -8 -110 -15 l-50 -14 45 4
c25 3 70 7 100 9 59 6 150 -18 158 -41 3 -10 -28 -13 -132 -13 -74 0 -137 -4
-140 -9 -3 -5 -27 -12 -53 -16 -27 -4 -42 -10 -35 -12 7 -3 42 0 78 6 60 11
67 10 93 -9 36 -25 45 -25 32 -1 -6 10 -7 21 -4 25 9 9 173 8 173 -1 -1 -5
-23 -19 -51 -32 -37 -18 -63 -24 -103 -22 -75 3 -235 -26 -336 -61 -160 -56
-170 -60 -170 -74 0 -7 -9 -15 -20 -19 -21 -7 -70 -60 -70 -77 0 -6 18 6 39
25 51 46 92 67 130 67 48 0 44 -15 -12 -45 -91 -49 -168 -97 -163 -102 3 -3
39 14 81 37 90 49 110 49 27 0 -31 -19 -77 -50 -101 -69 -24 -20 -61 -49 -82
-66 -21 -16 -72 -58 -113 -93 -73 -61 -76 -62 -76 -36 0 20 20 45 89 111 102
95 135 142 128 179 -4 21 5 32 49 69 29 24 74 56 98 72 29 18 49 39 56 59 15
44 29 54 163 123 l118 61 87 -1 c48 -1 98 -5 112 -9z m2932 -234 c2 -161 -40
-608 -71 -747 -18 -82 -41 -243 -51 -354 -8 -104 -8 -101 -4 51 5 168 15 251
59 499 24 133 28 182 32 435 2 157 7 292 10 300 11 29 23 -63 25 -184z m-1982
180 c0 -2 -8 -10 -17 -17 -16 -13 -17 -12 -4 4 13 16 21 21 21 13z m810 -783
c-71 -114 -111 -214 -153 -385 -18 -70 -35 -128 -38 -128 -8 0 -14 62 -29 278
-9 137 -8 165 11 280 11 70 27 152 35 182 9 30 27 96 40 145 42 152 58 199 76
224 10 13 18 28 18 34 0 11 55 102 79 131 15 16 16 -12 19 -324 l2 -341 -60
-96z m-1471 650 c14 -49 14 -85 0 -120 -11 -27 -11 -27 -33 39 -23 70 -32 86
-42 76 -3 -4 1 -19 9 -35 24 -47 40 -132 35 -184 -9 -92 -24 -77 -42 43 -10
61 -24 132 -33 156 -18 53 -10 62 54 62 40 0 43 -2 52 -37z m-135 -2 c36 -68
65 -299 40 -308 -7 -2 -16 22 -22 64 -6 37 -18 90 -26 117 -14 43 -14 47 0 42
26 -10 12 27 -15 41 -37 18 -48 43 -25 60 25 19 32 17 48 -16z m-211 -51 l-58
-70 -95 6 c-70 4 -108 2 -142 -9 -27 -8 -48 -13 -48 -11 0 11 159 64 265 87
13 3 9 5 -11 6 -18 0 -72 -11 -120 -25 -122 -36 -126 -37 -153 -16 l-23 19 59
22 c86 32 227 59 311 60 l73 1 -58 -70z m141 18 c25 -39 65 -171 72 -239 6
-59 3 -72 -25 -140 -65 -151 -56 -147 -76 -34 -19 109 -52 205 -92 274 l-25
43 19 27 c51 67 102 1 134 -174 l19 -100 -4 85 c-4 93 -33 185 -66 215 -25 22
-25 34 -2 51 24 18 29 17 46 -8z m350 -8 c24 -9 26 -14 26 -77 0 -69 -16 -150
-28 -139 -3 4 -12 37 -18 74 l-12 67 -1 -62 c-1 -34 4 -73 10 -86 15 -32 -15
-84 -37 -66 -8 6 -14 25 -14 41 0 17 -4 27 -10 23 -5 -3 -10 -23 -10 -43 0
-34 -1 -35 -17 -19 -17 16 -16 22 6 110 49 193 52 197 105 177z m87 -24 c42
-18 86 -51 100 -77 8 -17 2 -30 -39 -82 -27 -34 -74 -99 -105 -143 -68 -98
-84 -113 -93 -90 -4 10 8 35 34 69 72 94 84 128 81 226 -2 47 -7 92 -12 99
-12 15 -7 15 34 -2z m1339 -22 c0 -8 -4 -12 -10 -9 -5 3 -10 10 -10 16 0 5 5
9 10 9 6 0 10 -7 10 -16z m-2060 -63 c23 -7 21 -9 -20 -20 -84 -22 -265 -82
-309 -101 -81 -37 -33 -33 61 5 91 37 256 84 291 85 14 0 8 -11 -25 -50 -38
-44 -48 -50 -82 -50 -26 0 -76 -17 -145 -49 -58 -26 -153 -68 -211 -92 -72
-29 -118 -55 -145 -82 -43 -42 -38 -41 40 8 28 18 120 62 205 99 287 125 317
131 255 45 -20 -28 -52 -82 -72 -120 -19 -38 -39 -66 -44 -63 -5 3 -49 -6 -99
-20 -49 -14 -94 -26 -100 -26 -6 0 -46 -14 -90 -31 -134 -51 -340 -232 -355
-311 -5 -22 -89 -114 -136 -149 l-26 -19 4 48 c6 54 38 113 57 106 7 -3 20 6
29 19 9 13 41 54 71 90 31 36 56 71 56 78 0 19 109 138 142 155 53 27 51 9 -2
-24 -29 -18 -50 -35 -48 -38 6 -5 131 61 228 119 72 44 220 104 279 113 23 4
41 11 41 15 0 22 -161 -28 -285 -88 -74 -36 -123 -53 -150 -53 -22 -1 -52 -6
-68 -13 -33 -15 -207 -206 -207 -228 0 -9 -10 -24 -22 -35 -20 -18 -21 -18
-15 -1 4 10 7 32 7 48 0 28 17 52 85 123 17 17 35 41 40 53 12 25 165 158 242
209 30 19 59 44 66 55 7 11 28 30 47 42 19 13 67 45 106 71 101 68 228 99 304
77z m143 -29 c48 -53 125 -324 88 -310 -19 7 -82 101 -104 155 -13 32 -33 74
-45 93 l-21 34 21 23 c26 28 40 29 61 5z m3051 -70 c4 -7 2 -12 -3 -12 -6 0
-11 7 -11 15 0 20 -19 19 -27 -1 -3 -9 4 -73 15 -143 33 -192 34 -215 36 -564
1 -259 -2 -323 -11 -315 -16 13 -17 0 -2 -39 33 -86 41 -598 14 -839 -25 -224
-45 -374 -60 -454 -8 -41 -14 -89 -15 -106 0 -16 -6 -39 -14 -50 -14 -18 -15
-18 -20 6 -3 14 -15 93 -27 175 -24 157 -32 451 -16 565 6 49 6 53 -7 36 -13
-16 -14 -10 -11 63 3 45 7 86 10 92 4 5 3 14 -1 20 -4 8 -9 7 -15 -2 -19 -32
-22 13 -10 197 7 107 11 197 8 200 -10 10 -27 -207 -27 -351 0 -85 -5 -201
-12 -257 -11 -96 -13 -100 -20 -58 -14 88 -20 315 -10 370 10 51 25 135 53
298 6 34 16 62 23 62 8 0 11 55 11 192 0 177 16 338 34 338 3 0 5 -100 3 -222
-3 -228 2 -313 19 -302 6 3 7 82 3 207 -7 219 9 628 26 668 7 17 9 -102 7
-403 -1 -236 0 -428 4 -428 4 0 9 17 12 38 11 66 7 662 -4 797 -14 163 -12
205 8 252 l17 38 6 -35 c3 -20 10 -41 14 -48z m-2344 46 c-1 -23 -21 -58 -34
-58 -9 0 -7 25 4 54 12 32 30 34 30 4z m2230 -50 c-1 -94 -24 -275 -60 -473
-30 -161 -41 -270 -45 -440 -2 -119 -10 -195 -29 -295 -43 -230 -48 -296 -43
-548 4 -245 20 -366 76 -602 24 -100 25 -115 6 -78 -25 45 -84 281 -105 420
-12 77 -20 181 -20 252 0 140 23 390 45 491 8 39 15 90 15 115 0 49 17 120 28
120 4 0 8 78 8 173 2 151 7 203 44 427 23 140 44 306 47 368 5 84 9 112 19
112 10 0 14 -13 14 -42z m-2205 2 c5 -16 -7 -37 -50 -88 -31 -37 -90 -111
-132 -164 -42 -54 -80 -98 -85 -98 -17 0 -7 27 18 51 14 13 50 66 81 117 49
85 138 199 155 201 4 1 10 -8 13 -19z m-815 -40 c50 -50 121 -238 141 -375 6
-44 11 -135 11 -202 -1 -99 -5 -131 -20 -166 -35 -79 -46 -71 -38 26 7 91 -3
195 -35 362 -23 121 -47 200 -89 288 -17 37 -29 71 -25 77 10 16 33 12 55 -10z
m-46 -77 c44 -89 85 -238 107 -394 22 -162 21 -231 -5 -359 l-14 -65 -1 92
c-2 196 -63 498 -126 632 l-35 73 21 34 c11 19 22 34 25 34 2 0 14 -21 28 -47z
m915 -40 c13 -43 28 -83 32 -89 5 -6 13 -64 19 -130 6 -65 15 -144 20 -174 6
-30 17 -122 25 -205 8 -82 24 -204 35 -270 11 -66 24 -172 30 -235 12 -120 36
-288 69 -475 11 -60 25 -157 31 -215 6 -58 18 -148 26 -200 9 -52 16 -117 15
-145 0 -27 6 -94 15 -148 9 -54 13 -101 10 -104 -14 -14 -205 146 -321 269
-49 52 -105 126 -145 192 -36 59 -74 121 -84 138 -41 65 -55 152 -65 423 -12
303 -18 390 -31 465 -5 30 -14 89 -19 130 -5 41 -15 99 -23 128 -13 43 -13 60
-2 101 7 27 17 95 23 151 8 85 14 107 33 129 13 14 37 44 53 66 16 22 71 89
122 148 51 59 93 112 93 117 0 6 3 10 8 10 4 0 18 -35 31 -77z m2270 17 c0 -9
-4 -8 -9 5 -5 11 -9 27 -9 35 0 9 4 8 9 -5 5 -11 9 -27 9 -35z m-2740 -264
c-5 -240 -9 -287 -23 -307 -12 -18 -16 -45 -15 -114 1 -75 3 -83 10 -50 4 22
8 63 8 92 1 41 5 55 20 62 14 8 22 7 32 -6 12 -14 12 -16 -2 -11 -15 6 -17 -2
-15 -65 0 -40 -3 -247 -8 -462 -8 -383 -8 -392 14 -483 12 -51 24 -91 27 -88
3 3 0 34 -8 68 -11 49 -14 155 -12 488 3 535 10 600 46 410 37 -195 57 -379
67 -629 14 -350 24 -399 108 -521 16 -24 16 -24 -1 -11 -36 29 -28 -1 21 -76
27 -43 55 -96 62 -118 7 -22 25 -65 40 -95 66 -132 166 -427 155 -459 -3 -10
3 -29 15 -44 11 -14 47 -104 79 -199 73 -213 102 -295 134 -375 30 -73 133
-271 153 -294 14 -15 50 -187 41 -195 -8 -8 -167 161 -203 216 -20 30 -65 105
-99 165 -90 160 -154 272 -192 335 -18 30 -47 84 -64 120 -18 36 -62 129 -100
206 -84 176 -208 525 -244 689 -10 44 -21 91 -26 105 -6 22 -8 20 -8 -14 -1
-60 34 -194 109 -412 39 -110 70 -204 70 -207 0 -3 34 -77 76 -164 42 -87 85
-176 95 -198 11 -22 48 -90 82 -152 34 -62 89 -161 121 -220 33 -59 86 -150
118 -202 32 -52 57 -96 54 -98 -2 -2 -19 21 -37 52 -19 32 -61 94 -94 139 -33
44 -65 92 -71 106 -7 14 -24 41 -40 59 -15 18 -79 110 -141 204 -130 196 -295
513 -338 652 -15 50 -33 108 -40 130 -7 22 -21 90 -30 150 -26 173 -35 213
-50 225 -20 16 -27 9 -81 -71 -27 -41 -52 -68 -59 -65 -15 5 -115 -116 -178
-216 -36 -58 1 -24 56 51 32 44 68 88 80 98 l21 18 -18 -30 c-44 -72 -130
-185 -164 -216 -20 -19 -29 -25 -21 -14 25 31 31 45 20 45 -5 0 -30 -31 -55
-68 -46 -69 -189 -205 -381 -363 -140 -115 -270 -209 -290 -209 -5 0 17 27 50
60 103 104 51 77 -60 -31 -90 -88 -199 -168 -228 -169 -5 0 18 23 49 50 31 28
61 50 65 50 8 0 197 210 275 306 146 181 472 535 557 606 89 75 34 9 -183
-221 -190 -202 -260 -281 -356 -407 -117 -152 -62 -109 66 53 53 67 192 220
308 340 116 120 227 241 248 268 20 28 60 75 89 105 110 117 125 159 125 370
0 153 24 556 40 668 5 37 9 88 9 114 -1 53 20 156 33 164 10 6 10 3 -1 -71 -6
-33 -17 -202 -25 -375 -33 -653 -40 -708 -113 -838 -70 -126 -102 -163 -508
-592 -152 -160 -244 -264 -239 -270 6 -5 64 55 350 355 303 318 354 379 413
487 74 138 92 227 101 513 18 528 38 779 64 798 13 10 17 46 21 217 5 230 14
370 24 370 3 0 3 -128 0 -284z m41 57 c0 -114 -3 -204 -6 -201 -8 9 -10 417
-1 411 4 -2 7 -97 7 -210z m-535 115 c64 -141 115 -411 115 -615 0 -68 5 -121
12 -132 9 -14 7 -40 -7 -115 -10 -53 -22 -99 -27 -102 -4 -3 -8 23 -8 58 0 35
-7 92 -16 128 -8 36 -24 106 -34 155 -10 50 -22 98 -25 108 -4 10 -3 17 4 17
6 0 11 -6 11 -12 0 -7 12 -21 25 -31 24 -17 25 -17 25 2 0 11 -7 26 -15 34 -8
8 -26 62 -39 120 -29 120 -61 206 -106 278 l-30 50 32 64 c17 36 36 65 41 65
4 0 23 -33 42 -72z m3264 -85 c7 -54 14 -111 17 -128 3 -16 9 -185 14 -375 5
-190 13 -440 16 -555 9 -261 -9 -577 -42 -770 -13 -77 -33 -197 -44 -267 -10
-70 -24 -145 -29 -166 -15 -55 -42 -214 -38 -219 11 -10 26 31 42 117 9 52 23
120 31 150 7 30 18 91 23 135 5 44 21 148 35 230 14 83 30 213 36 290 11 156
13 675 2 745 -4 25 -5 113 -2 195 l5 150 12 -70 c7 -38 16 -95 19 -125 3 -30
12 -77 20 -105 30 -108 45 -229 55 -440 5 -121 7 -247 4 -280 -3 -33 -9 -127
-15 -210 -5 -82 -19 -206 -30 -275 -22 -133 -83 -433 -99 -488 -13 -42 -100
-220 -112 -228 -13 -8 -12 -3 25 114 18 59 41 139 50 177 9 39 25 103 36 143
11 40 27 119 35 175 8 56 21 131 29 167 48 205 44 1074 -5 1150 -7 10 -8 -16
-4 -80 17 -258 22 -540 14 -705 -11 -216 -26 -377 -40 -411 -5 -14 -19 -78
-30 -142 -32 -180 -97 -438 -135 -534 -19 -48 -34 -93 -34 -101 0 -17 -29 -57
-41 -57 -17 0 -9 56 16 118 25 62 42 169 51 322 3 47 11 108 19 135 8 28 17
77 19 110 3 33 12 92 20 130 8 39 20 124 26 190 6 66 18 174 26 240 17 142 19
529 4 689 -8 76 -7 112 0 121 8 9 8 57 0 167 -7 84 -9 169 -6 188 6 42 -10
426 -20 458 -3 12 -2 22 4 22 5 0 15 -44 21 -97z m58 -65 c26 -156 55 -449 44
-460 -6 -8 -50 268 -70 442 -6 52 -14 115 -17 140 -5 35 -4 43 6 33 7 -6 23
-76 37 -155z m-2876 -32 c-5 -92 -13 -171 -17 -174 -4 -4 -4 66 0 155 5 146
12 201 22 190 2 -2 0 -79 -5 -171z m-1771 114 c0 -16 -4 -30 -10 -30 -5 0 -10
14 -10 30 0 17 5 30 10 30 6 0 10 -13 10 -30z m1608 -35 c2 -32 -2 -63 -7 -68
-8 -8 -11 4 -11 39 0 27 -3 60 -7 73 -4 18 -2 23 8 19 9 -3 15 -24 17 -63z
m76 -32 c-21 -116 -23 -120 -19 -43 3 76 11 110 25 110 4 0 1 -30 -6 -67z m46
1 c-6 -32 -10 -113 -11 -179 0 -96 -2 -115 -11 -95 -16 37 -12 222 7 287 21
70 27 64 15 -13z m-465 -57 c30 -64 75 -214 75 -248 0 -29 -48 40 -79 112 -31
73 -73 131 -100 140 -10 4 -7 18 14 58 26 52 27 53 42 32 8 -12 30 -54 48 -94z
m-1213 -11 c1 -80 1 -80 7 -22 6 55 7 57 23 40 9 -11 33 -59 52 -108 20 -48
52 -116 73 -149 20 -33 39 -76 42 -96 4 -19 12 -36 19 -39 10 -3 10 2 1 22
-15 33 -8 40 25 25 19 -9 26 -20 26 -41 0 -35 -20 -36 -75 -5 -50 28 -81 83
-95 169 -13 77 -35 96 -24 21 5 -37 4 -45 -6 -37 -6 7 -14 49 -17 95 -7 108
-22 136 -25 49 -1 -36 -1 -81 0 -100 l1 -35 -30 35 c-28 33 -59 112 -59 151 0
10 4 28 9 41 6 13 13 41 16 63 6 37 8 38 21 20 9 -12 15 -48 16 -99z m1078 75
c0 -5 -31 -14 -69 -21 -137 -23 -334 -121 -456 -226 -51 -44 0 -18 98 50 92
63 187 111 282 139 49 15 125 29 125 23 0 -2 -35 -86 -78 -187 -44 -101 -81
-191 -84 -200 -8 -22 -139 -109 -267 -177 -81 -44 -125 -75 -185 -135 -44 -42
-76 -80 -73 -83 3 -3 48 30 99 75 68 59 110 87 159 106 36 14 101 48 145 75
80 51 96 52 72 5 -10 -19 -37 -36 -98 -60 -177 -73 -346 -185 -445 -295 -16
-18 -44 -47 -61 -64 -37 -36 -118 -155 -111 -162 5 -5 19 12 84 104 19 26 33
38 35 30 3 -8 15 4 30 27 32 50 124 139 201 194 63 46 319 175 335 170 12 -5
-7 -66 -54 -167 -18 -41 -37 -71 -42 -68 -30 19 -181 -71 -362 -215 -91 -72
-191 -169 -174 -169 5 0 28 19 49 41 51 53 345 273 407 305 83 42 93 32 55
-57 -13 -30 -36 -99 -52 -154 -15 -55 -35 -109 -44 -119 -9 -10 -66 -43 -127
-71 -151 -72 -221 -137 -291 -272 -49 -94 -81 -176 -51 -128 16 25 202 208
243 240 17 13 64 42 105 64 76 41 74 59 -3 20 -70 -36 -129 -79 -204 -153 -40
-38 -73 -66 -73 -62 0 4 12 27 26 52 33 57 136 151 194 176 25 11 69 31 99 45
29 13 56 22 58 19 10 -10 -8 -75 -37 -134 -26 -52 -36 -62 -76 -77 -62 -23
-171 -113 -292 -240 -55 -58 -103 -105 -105 -105 -12 0 -22 72 -24 170 -1 58
-3 121 -4 140 -4 69 30 181 73 243 22 32 38 60 36 62 -2 3 -19 -16 -37 -42
-29 -41 -34 -45 -43 -29 -8 14 -5 29 10 60 34 70 54 139 58 199 3 53 7 61 50
105 25 26 61 70 80 99 42 64 83 105 199 197 166 133 303 216 356 216 16 0 29
5 29 10 0 35 -193 -50 -305 -135 -49 -37 -67 -45 -102 -45 -24 0 -43 1 -43 3
0 8 130 107 195 149 163 105 284 165 312 154 7 -3 13 -1 13 3 0 64 -319 -107
-510 -272 -71 -62 -105 -81 -65 -37 10 11 16 22 13 25 -2 2 -33 -27 -67 -66
-35 -38 -66 -68 -68 -65 -14 14 50 131 66 121 4 -2 45 32 91 76 146 141 433
312 551 329 l54 8 -58 1 c-50 1 -70 -5 -160 -50 -141 -71 -278 -160 -369 -242
-43 -38 -78 -66 -78 -62 0 5 46 55 103 113 63 64 93 102 80 97 -13 -3 -23 -4
-23 0 0 9 110 118 170 167 30 25 78 57 107 72 100 50 323 96 323 67z m2209
-256 c-88 -167 -111 -218 -140 -305 -36 -108 -37 -110 -50 -90 -11 19 -4 79
26 200 41 165 93 299 164 420 l26 45 3 -105 c3 -101 2 -107 -29 -165z m-1345
230 c-15 -23 -34 -33 -34 -18 0 10 32 43 42 43 5 0 1 -11 -8 -25z m-808 -107
c61 -87 119 -224 139 -330 16 -85 20 -233 7 -242 -5 -3 -19 52 -31 122 -23
126 -32 158 -77 302 -24 75 -61 147 -70 137 -3 -3 6 -28 21 -56 56 -111 124
-408 141 -616 8 -96 24 -136 23 -55 -2 65 31 218 41 198 4 -7 11 -66 15 -131
l7 -118 -25 6 c-23 6 -25 3 -40 -57 -9 -35 -23 -79 -31 -98 l-14 -35 -6 45
c-3 25 -8 89 -11 142 -6 104 -15 141 -45 173 -12 13 -22 49 -30 105 -27 204
-55 302 -105 378 -24 36 -25 41 -11 78 39 109 56 118 102 52z m-1602 -68 c2
-14 7 -42 11 -62 3 -21 10 -38 15 -38 5 0 6 16 3 36 l-6 36 36 -23 c34 -22 37
-28 37 -71 0 -61 -16 -70 -52 -28 -28 34 -28 34 -28 9 0 -28 64 -93 102 -104
26 -7 133 -118 119 -123 -5 -2 -23 4 -40 13 -17 8 -31 11 -31 6 0 -16 29 -33
64 -36 25 -2 64 -26 144 -89 61 -47 114 -91 117 -96 4 -6 -16 -10 -52 -10 -48
0 -68 5 -104 29 -50 32 -199 182 -199 201 0 7 -23 37 -51 68 -28 31 -57 65
-65 77 -13 20 -51 153 -59 205 -2 14 -6 39 -10 55 l-7 30 25 -30 c15 -16 28
-41 31 -55z m2303 -12 c-3 -8 -6 -5 -6 6 -1 11 2 17 5 13 3 -3 4 -12 1 -19z
m-785 -94 c32 -58 62 -179 79 -319 13 -110 24 -149 39 -140 5 3 14 -11 19 -32
9 -33 29 -248 33 -354 1 -42 -31 -139 -46 -139 -26 1 -34 22 -43 120 l-10 105
-1 -128 c-2 -93 -6 -138 -18 -165 l-17 -37 -13 85 c-16 107 -41 213 -43 180 0
-14 6 -63 14 -110 17 -97 20 -242 5 -268 -5 -9 -15 -30 -22 -47 -11 -28 -13
-22 -18 62 -8 130 -20 127 -20 -5 0 -61 -4 -113 -9 -116 -5 -4 -32 -48 -59
-99 -48 -88 -139 -223 -147 -215 -2 1 1 23 5 48 5 25 9 56 8 70 0 14 -6 -3
-13 -36 -6 -34 -22 -74 -33 -89 l-22 -28 0 54 c0 66 -13 115 -38 143 -16 17
-21 43 -26 136 -6 114 -22 195 -45 239 -7 13 -10 34 -6 49 l7 27 18 -25 c39
-52 79 -211 82 -329 1 -38 5 -56 10 -47 12 21 -10 207 -34 284 -11 36 -33 85
-48 107 -21 31 -26 45 -19 58 6 9 32 83 59 164 27 81 53 149 58 151 10 3 63
-139 87 -235 8 -35 20 -108 25 -164 5 -56 13 -105 16 -108 4 -3 4 41 1 99 -6
115 -37 249 -86 373 l-30 76 24 68 c14 37 31 79 39 93 7 14 19 42 26 63 6 21
16 34 22 31 19 -12 97 -192 109 -253 15 -77 8 -386 -9 -403 -9 -9 -12 -9 -12
2 0 8 -9 74 -20 145 -24 154 -61 300 -90 353 -24 42 -22 33 15 -88 52 -172 91
-456 74 -546 -6 -32 -6 -50 1 -52 5 -2 10 -16 11 -30 1 -27 1 -27 9 3 23 83
53 283 60 394 11 187 -1 266 -56 381 -25 52 -55 105 -67 118 l-21 22 23 63
c12 34 31 71 42 83 10 11 16 23 13 26 -8 9 5 48 16 48 15 0 68 -120 94 -210
13 -47 31 -141 41 -210 21 -163 22 -167 24 -89 3 153 -81 462 -140 515 -11 9
-19 21 -19 25 0 22 45 109 54 106 6 -2 23 -26 38 -53z m745 14 c-3 -7 -5 -2
-5 12 0 14 2 19 5 13 2 -7 2 -19 0 -25z m-1771 -8 c13 0 52 -44 89 -99 31 -47
89 -91 118 -91 26 0 31 -24 11 -62 -9 -18 -19 -27 -21 -21 -3 8 -14 11 -29 7
-28 -7 -109 48 -150 102 -26 34 -52 103 -60 163 -4 33 -3 34 14 18 10 -9 23
-17 28 -17z m-319 -32 c22 -24 60 -70 83 -103 64 -89 303 -321 345 -335 36
-12 47 -30 19 -30 -9 0 -32 -9 -50 -21 -34 -21 -48 -16 -18 6 15 10 14 14 -12
38 -16 15 -32 27 -36 27 -4 0 -14 16 -23 36 -12 29 -18 34 -35 29 -15 -5 -23
0 -32 19 -7 17 -19 26 -34 26 -17 0 -26 9 -37 43 -14 41 -15 42 -25 17 -6 -14
-12 -20 -13 -15 -1 6 -2 15 -3 20 -4 21 -26 65 -32 65 -3 0 -3 -12 1 -27 6
-26 5 -27 -10 -12 -9 9 -19 40 -22 73 -7 67 -23 85 -23 25 0 -36 -2 -40 -15
-29 -8 7 -13 15 -10 19 2 4 -2 29 -9 57 -9 33 -16 44 -20 33 -4 -8 -2 -28 4
-44 15 -39 7 -41 -24 -5 -20 25 -26 42 -26 81 0 27 4 49 8 49 4 0 26 -19 49
-42z m-61 -85 c-7 -7 -26 7 -26 19 0 6 6 6 15 -2 9 -7 13 -15 11 -17z m1989
-70 c-3 -49 -13 -137 -20 -198 -13 -105 -25 -279 -44 -645 -6 -113 -14 -177
-25 -204 -22 -52 -27 -43 -11 19 9 35 13 140 13 350 0 165 3 309 6 320 20 70
36 143 35 160 -1 21 -12 -10 -24 -69 -3 -15 -8 -26 -11 -24 -7 7 23 154 47
233 11 39 23 87 26 108 10 70 15 37 8 -50z m-1201 -131 c3 -4 -31 -41 -75 -81
-44 -40 -94 -96 -113 -124 -18 -29 -41 -59 -51 -67 -17 -14 -17 -13 -10 10 14
48 37 88 71 129 40 46 35 55 -8 14 -42 -40 -34 -13 14 46 29 36 44 47 50 39 5
-8 8 -9 8 -2 0 6 21 18 48 27 56 19 59 19 66 9z m3792 -35 c3 -8 -4 -36 -14
-63 -54 -137 -92 -451 -93 -764 0 -219 5 -289 32 -445 14 -85 114 -375 161
-469 35 -69 39 -85 33 -123 -3 -23 -10 -43 -14 -43 -5 0 -25 53 -46 118 -20
64 -55 169 -76 232 -74 221 -113 433 -125 688 -11 226 26 589 72 697 20 48 44
138 44 165 0 23 18 27 26 7z m-5596 -42 c70 -7 185 -34 227 -51 17 -8 46 -17
64 -21 19 -3 60 -26 91 -49 32 -23 75 -48 96 -55 l37 -12 -32 -9 c-18 -5 -33
-12 -33 -17 0 -10 46 -31 70 -31 10 0 21 -4 24 -9 4 -5 23 -12 44 -16 46 -8
281 -73 266 -74 -24 -2 -236 41 -314 63 -136 40 -160 45 -160 36 0 -4 12 -12
28 -18 101 -37 164 -55 253 -72 95 -18 133 -30 97 -30 -42 0 -277 48 -373 76
-18 6 -18 4 -5 -9 22 -22 131 -53 261 -74 63 -10 102 -19 87 -21 -42 -5 -322
45 -416 74 -46 14 -88 24 -95 21 -19 -6 127 -55 215 -72 46 -9 99 -20 118 -24
34 -9 33 -9 -16 -10 -69 -1 -446 76 -463 96 -3 3 5 3 19 0 51 -14 136 -19 120
-8 -8 5 -32 13 -53 16 -64 11 -277 83 -352 120 -38 18 -92 55 -120 80 -43 40
-45 43 -10 17 22 -16 51 -33 65 -37 14 -4 56 -21 94 -37 69 -30 130 -50 276
-88 41 -11 83 -23 93 -26 9 -3 17 -1 17 5 0 6 -46 24 -102 41 -203 61 -430
151 -416 165 3 3 40 -11 82 -31 43 -20 108 -45 144 -56 73 -21 365 -78 371
-72 8 7 -55 25 -218 63 -115 27 -199 54 -274 86 -59 27 -105 50 -103 52 2 3
46 -12 98 -32 51 -21 127 -43 168 -51 170 -30 228 -42 293 -62 37 -11 67 -17
67 -12 0 14 -182 68 -302 90 -98 18 -187 45 -177 54 9 10 160 -15 234 -37 44
-14 105 -32 135 -41 30 -8 86 -31 124 -51 76 -39 76 -39 76 -25 0 14 -117 76
-180 95 -30 9 -95 30 -145 45 -49 16 -116 34 -147 40 -32 6 -58 14 -58 17 0 2
12 2 28 -1 15 -3 52 -8 82 -11z m6050 -8 c0 -7 8 -29 19 -50 10 -20 15 -34 10
-31 -11 6 -34 50 -44 83 -5 16 -4 21 4 17 6 -4 11 -13 11 -19z m-350 4 c0 -5
-4 -21 -9 -34 -5 -13 -24 -111 -41 -218 -30 -178 -32 -208 -28 -354 5 -150 12
-211 78 -635 10 -69 21 -152 24 -185 l5 -60 -10 60 c-6 33 -21 105 -34 160
-13 55 -33 152 -44 215 -12 63 -25 140 -31 171 -13 70 -13 482 -1 546 6 26 22
114 37 196 19 105 30 147 40 147 8 0 14 -4 14 -9z m-4260 -101 c0 -11 -57 -18
-72 -8 -9 5 -3 8 15 8 15 0 27 4 27 10 0 5 7 7 15 4 8 -4 15 -10 15 -14z
m4655 -81 l5 -44 -14 35 c-17 41 -22 95 -6 69 5 -9 12 -36 15 -60z m-5437 -25
c93 -18 115 -24 109 -30 -4 -5 -219 35 -226 42 -9 8 42 3 117 -12z m202 -44
c26 -16 3 -21 -31 -6 -31 13 -32 14 -9 15 14 0 32 -3 40 -9z m-1010 -36 c0 -2
-7 -4 -15 -4 -8 0 -15 4 -15 10 0 5 7 7 15 4 8 -4 15 -8 15 -10z m950 1 l25
-15 -30 6 c-16 4 -39 11 -50 15 -18 7 -18 8 5 8 14 0 36 -6 50 -14z m193 -15
c4 -4 2 -12 -5 -17 -10 -8 -22 -5 -47 13 l-34 23 39 -6 c21 -3 43 -9 47 -13z
m-1041 -36 c18 -9 55 -25 82 -35 33 -11 43 -18 28 -18 -23 -1 -139 44 -156 60
-16 15 12 11 46 -7z m6176 -229 c8 -170 3 -342 -13 -506 -6 -54 -4 -70 4 -64
9 5 11 -3 6 -32 -12 -69 -80 -306 -83 -289 -4 18 23 222 39 294 12 54 33 357
34 477 0 50 -3 153 -6 230 -4 83 -4 126 2 105 4 -19 12 -116 17 -215z m16 160
c4 -34 3 -43 -3 -30 -9 19 -15 93 -7 84 2 -2 6 -26 10 -54z m-4684 26 c0 -8
-19 -17 -75 -38 -5 -3 4 7 20 21 30 26 55 34 55 17z m-1207 -18 c-7 -2 -19 -2
-25 0 -7 3 -2 5 12 5 14 0 19 -2 13 -5z m5894 -205 c-2 -24 -4 -5 -4 42 0 47
2 66 4 43 2 -24 2 -62 0 -85z m-4883 81 c-10 -12 -37 -35 -59 -51 -29 -22 -25
-16 15 21 57 53 77 66 44 30z m46 -54 c0 -33 -1 -34 -25 -23 -31 14 -31 22 -3
42 29 21 28 21 28 -19z m-24 -60 c11 -17 14 -35 10 -60 -8 -42 -15 -43 -46
-10 -13 14 -32 25 -42 25 -23 0 -23 11 3 44 26 33 54 33 75 1z m-181 -35 c-21
-22 -41 -37 -44 -34 -6 6 64 74 76 74 4 0 -10 -18 -32 -40z m46 -39 c-13 -24
-14 -71 -2 -71 17 0 64 -56 84 -100 14 -30 22 -39 25 -28 5 25 -49 119 -75
131 -26 12 -28 25 -11 62 9 19 16 24 32 19 35 -10 54 -42 61 -102 4 -31 11
-83 16 -116 13 -76 14 -238 2 -262 -6 -10 -13 -62 -16 -114 -8 -117 -24 -195
-45 -216 -9 -9 -19 -44 -24 -80 -11 -94 -25 -137 -57 -177 l-28 -36 5 138 c4
117 2 147 -13 188 -15 43 -16 58 -6 114 7 35 14 134 17 219 2 85 6 192 8 237
4 90 -6 101 -23 24 -6 -28 -48 -130 -94 -228 -87 -183 -113 -250 -103 -260 3
-3 8 3 12 13 37 106 130 290 159 314 13 11 15 6 15 -43 0 -30 -3 -57 -7 -59
-5 -1 -16 -19 -26 -38 -9 -19 -31 -53 -46 -75 -16 -23 -55 -91 -86 -153 -31
-62 -61 -112 -66 -112 -17 0 -21 27 -9 71 7 24 16 67 20 94 15 87 31 143 45
155 11 9 12 7 8 -12 -12 -48 9 -7 38 73 43 120 44 129 12 79 -25 -40 -28 -42
-31 -22 -6 39 23 105 97 221 39 61 71 114 71 117 0 17 -36 -27 -72 -88 -43
-72 -66 -98 -46 -51 18 43 46 82 108 150 52 58 74 69 51 24z m841 -164 c17
-141 -4 -289 -59 -413 l-17 -39 -8 95 c-4 56 -18 129 -34 177 -26 81 -26 82
-8 122 10 23 22 37 27 32 13 -13 36 -159 37 -235 0 -51 3 -67 11 -59 15 15 -4
222 -25 282 -22 60 -20 84 11 144 l26 52 14 -34 c8 -19 19 -74 25 -124z m-974
125 c-85 -114 -130 -172 -134 -172 -3 0 -2 6 2 13 12 20 137 177 141 177 2 0
-2 -8 -9 -18z m5135 -145 c-3 -70 -9 -127 -12 -127 -7 0 -3 204 5 239 11 50
14 10 7 -112z m-4287 61 c-3 -18 -29 -82 -57 -143 -28 -60 -60 -130 -71 -155
-47 -106 -71 -151 -133 -255 -61 -102 -65 -112 -56 -145 l9 -35 1 30 c2 33 44
109 54 98 13 -13 7 -100 -7 -113 -19 -15 -189 -100 -193 -96 -2 1 9 32 24 67
21 52 26 81 27 154 1 50 -5 115 -13 146 -12 51 -12 61 4 103 10 26 23 50 29
54 6 4 27 26 45 50 45 58 251 239 292 257 48 20 52 19 45 -17z m3669 -133 c21
-159 57 -314 105 -455 22 -64 44 -138 49 -165 9 -48 9 -48 -8 -27 -27 37 -121
342 -141 459 -19 111 -37 322 -27 313 3 -3 13 -59 22 -125z m-4453 -47 c-7 -7
-12 -8 -12 -2 0 14 12 26 19 19 2 -3 -1 -11 -7 -17z m-279 -18 c-141 -228
-187 -299 -191 -296 -11 12 186 326 205 326 3 0 -3 -13 -14 -30z m1063 -42 c9
-30 18 -106 21 -175 5 -118 6 -121 26 -110 11 7 30 35 43 62 l23 50 2 -65 1
-65 9 49 c4 28 5 54 2 59 -7 11 29 177 38 177 13 0 39 -100 39 -152 0 -51 -2
-56 -60 -120 -58 -64 -115 -108 -139 -108 -7 0 -11 25 -12 68 -1 49 -3 60 -9
42 -4 -14 -8 -44 -9 -68 -1 -33 -7 -49 -27 -67 -15 -14 -33 -26 -40 -26 -8 -1
-19 -2 -25 -3 -6 -1 -12 20 -13 49 -3 48 -22 113 -31 103 -2 -2 0 -21 6 -41 6
-21 9 -54 7 -74 -3 -33 -7 -37 -44 -48 l-42 -12 1 76 c0 73 2 80 54 176 30 55
59 104 63 109 14 14 40 -49 49 -121 l8 -68 2 56 c1 57 -24 149 -40 149 -15 0
-10 20 21 87 17 35 36 63 45 63 9 0 21 -21 31 -52z m3600 -95 c12 -87 54 -257
90 -362 40 -116 41 -144 2 -49 -53 131 -78 215 -98 338 -6 41 -14 85 -16 98
-2 12 0 22 5 22 5 0 13 -21 17 -47z m-1689 -255 c40 -34 70 -64 68 -66 -7 -7
-197 123 -238 163 -30 30 -97 139 -97 160 0 3 44 -40 98 -96 53 -55 129 -128
169 -161z m-2702 116 c-24 -186 -58 -308 -92 -328 -17 -9 -84 -146 -105 -213
-7 -24 -15 -43 -18 -43 -3 0 -11 13 -17 30 -9 23 -8 44 2 87 7 32 16 85 20
118 9 81 33 152 89 264 50 100 70 117 36 32 -11 -28 -20 -57 -20 -64 1 -18 40
59 61 122 25 71 52 132 56 127 3 -2 -3 -62 -12 -132z m2023 -224 c-1 -90 -1
-92 -8 -35 -11 84 -11 188 0 155 4 -14 8 -68 8 -120z m622 80 c107 -65 170
-96 211 -104 23 -5 47 -42 34 -54 -4 -5 -104 32 -148 54 -64 33 -169 108 -188
136 -11 15 -18 28 -14 28 3 0 50 -27 105 -60z m-1010 5 c0 -8 -4 -15 -10 -15
-5 0 -7 7 -4 15 4 8 8 15 10 15 2 0 4 -7 4 -15z m-1614 -214 c-5 -176 -13
-220 -43 -253 -27 -30 -32 -20 -18 35 20 80 25 117 17 117 -4 0 -15 -37 -24
-82 -18 -85 -36 -119 -78 -147 -28 -18 -30 -31 24 124 61 177 86 260 86 283 0
37 23 111 33 105 5 -3 7 -81 3 -182z m4959 107 c-29 -106 -63 -200 -76 -213
-6 -6 -6 1 1 20 6 17 18 64 26 105 15 72 52 170 65 170 4 0 -4 -37 -16 -82z
m-3413 0 c-11 -35 -32 -106 -47 -158 -15 -52 -44 -140 -65 -195 -21 -55 -48
-136 -59 -180 -46 -189 -80 -289 -184 -546 -49 -121 -93 -216 -72 -154 12 33
51 144 89 248 20 54 52 153 72 220 19 67 67 221 105 342 74 230 78 245 105
364 16 66 57 141 71 127 3 -3 -4 -33 -15 -68z m-2207 -55 c-15 -32 -34 -80
-42 -108 -9 -27 -18 -44 -20 -38 -3 7 3 37 12 65 25 75 68 165 73 150 2 -6 -8
-38 -23 -69z m89 50 c-3 -16 -22 -86 -41 -158 -25 -90 -37 -155 -39 -211 -4
-132 -76 -563 -121 -722 -15 -53 -11 -94 7 -76 5 5 19 59 30 119 11 61 30 157
40 215 11 58 20 117 20 131 0 15 9 69 19 120 11 52 22 121 26 154 5 41 15 69
31 88 13 16 24 27 24 25 0 -2 -9 -28 -19 -58 -11 -33 -24 -112 -30 -195 -22
-262 -42 -407 -80 -564 -19 -78 -20 -104 -5 -89 31 31 102 506 105 698 0 25 4
54 9 65 9 20 5 -222 -5 -388 -6 -80 -33 -225 -62 -330 -15 -54 -17 -116 -18
-462 -1 -339 -4 -408 -17 -450 l-17 -50 5 85 4 85 -25 -134 c-29 -155 -63
-274 -64 -226 0 17 4 48 10 70 6 22 21 121 34 220 30 224 35 581 10 735 -9 52
-18 96 -20 98 -14 15 -15 -37 -1 -97 28 -122 20 -565 -14 -746 -5 -27 -14 -82
-20 -120 -6 -39 -16 -77 -21 -85 -8 -12 -9 -11 -5 5 23 86 43 506 30 640 -8
83 -9 70 -15 -155 -8 -284 -25 -414 -96 -765 -23 -117 -48 -183 -32 -88 14 83
47 334 58 438 15 133 16 471 2 620 -6 66 -14 174 -17 240 -5 91 -9 115 -17 98
-6 -15 -4 -104 7 -280 9 -142 16 -301 16 -353 0 -200 -26 -457 -72 -710 -22
-124 -44 -174 -34 -80 3 30 8 111 11 180 4 69 16 181 26 250 11 69 25 172 30
230 11 112 3 368 -12 404 -5 13 -6 -45 -3 -149 6 -173 1 -242 -35 -480 -10
-71 -24 -186 -31 -255 -6 -69 -13 -126 -14 -128 -5 -5 -16 109 -12 117 3 4 9
230 15 502 6 271 13 546 15 609 4 90 3 109 -6 90 -7 -16 -14 -169 -19 -420 -4
-217 -13 -451 -18 -520 -6 -69 -11 -210 -11 -314 0 -104 -2 -187 -4 -185 -11
12 -49 276 -61 434 -20 251 -10 382 65 835 32 196 42 274 41 312 -2 41 46 240
80 333 12 33 30 83 40 110 10 28 38 99 63 160 25 60 46 116 46 123 0 17 32 72
42 72 9 0 -23 -93 -54 -155 -81 -160 -178 -514 -178 -648 0 -66 24 -58 28 9 7
129 70 371 152 587 27 71 34 70 15 -3 -32 -122 9 -27 55 127 12 39 30 82 41
94 11 13 22 34 25 48 21 101 31 136 57 214 29 86 43 112 31 60z m2539 -208 c3
-93 2 -127 -3 -90 -11 82 -21 342 -11 285 5 -25 11 -112 14 -195z m734 175
c29 -17 71 -32 92 -34 55 -5 95 -27 99 -54 4 -27 -7 -28 -61 -1 -55 27 -197
111 -197 115 0 9 17 2 67 -26z m-1277 -152 c-23 -84 -51 -178 -62 -208 -21
-58 -88 -280 -118 -390 -78 -288 -323 -874 -390 -935 -21 -19 -21 -19 -12 5
58 151 72 191 82 230 7 25 20 56 30 70 9 14 23 43 30 64 7 22 26 65 41 97 16
32 29 62 29 67 0 4 11 30 24 58 12 27 31 72 41 99 9 28 28 73 40 101 42 92
154 438 174 534 11 52 31 127 45 165 13 39 27 91 31 117 6 46 45 112 53 90 2
-7 -15 -81 -38 -164z m136 84 c-9 -33 -16 -74 -16 -92 0 -18 -15 -73 -34 -124
-19 -50 -48 -149 -66 -221 -52 -214 -183 -579 -303 -845 -13 -30 -43 -79 -65
-109 -45 -59 -143 -164 -148 -158 -8 8 22 56 33 54 7 -1 31 39 54 88 45 99 51
111 81 164 43 75 60 112 114 242 102 247 204 542 204 594 0 12 9 44 19 71 43
109 62 165 98 293 37 129 60 164 29 43z m3071 66 c-3 -8 -6 -5 -6 6 -1 11 2
17 5 13 3 -3 4 -12 1 -19z m-5192 -94 c-19 -110 -54 -219 -66 -207 -5 5 5 51
21 103 16 52 32 115 36 140 7 54 13 75 20 68 3 -3 -3 -50 -11 -104z m39 47
c-4 -23 -9 -40 -11 -37 -3 3 -2 23 2 46 4 23 9 39 11 37 3 -2 2 -23 -2 -46z
m2622 -58 c8 -32 16 -130 19 -218 3 -131 2 -146 -5 -80 -10 89 -38 304 -46
350 -8 52 17 12 32 -52z m-2762 -29 c-15 -48 -29 -83 -32 -76 -4 14 48 176 55
169 2 -3 -8 -45 -23 -93z m3399 52 c45 -25 101 -49 125 -56 25 -6 42 -17 42
-25 0 -34 -63 -10 -180 69 -46 31 -80 56 -77 56 4 0 44 -20 90 -44z m-1392
-113 c-16 -54 -41 -143 -55 -198 -43 -173 -183 -587 -243 -715 -14 -30 -41
-95 -60 -145 -19 -49 -38 -93 -42 -98 -16 -17 20 151 43 198 51 105 76 162 76
176 0 8 6 25 13 39 7 14 28 63 46 110 18 47 43 110 56 140 31 74 58 164 90
293 14 60 33 127 41 149 8 22 14 49 14 59 0 10 10 44 22 76 35 92 35 31 -1
-84z m656 115 c-3 -8 -6 -5 -6 6 -1 11 2 17 5 13 3 -3 4 -12 1 -19z m-2131
-39 c-25 -62 -10 -60 18 2 14 30 25 49 25 44 1 -13 -70 -224 -94 -280 -39 -92
-67 -145 -76 -145 -5 0 -7 24 -4 58 10 100 16 122 29 122 8 0 17 12 21 28 9
37 89 221 94 217 2 -2 -4 -23 -13 -46z m2200 -249 c4 -75 3 -162 -2 -195 -7
-52 -9 -37 -15 120 -3 99 -9 225 -12 280 l-6 100 14 -85 c8 -47 17 -146 21
-220z m664 231 c47 -28 107 -58 133 -67 34 -11 51 -23 58 -41 5 -14 8 -27 7
-29 -3 -3 -51 21 -124 62 -67 38 -193 127 -194 137 0 9 7 5 120 -62z m-1430
-13 c-5 -13 -28 -95 -50 -183 -60 -236 -82 -306 -139 -449 -28 -70 -51 -132
-51 -137 0 -5 -13 -37 -29 -71 -16 -35 -35 -82 -42 -106 -23 -79 -20 -35 6 94
20 96 34 140 56 173 16 25 42 86 58 135 16 50 45 134 64 186 39 110 70 212 87
290 14 62 26 90 40 90 6 0 6 -9 0 -22z m1435 -56 c39 -25 94 -60 123 -79 29
-19 59 -32 67 -30 10 4 18 -14 29 -66 43 -199 50 -367 20 -527 l-20 -105 -23
60 c-13 33 -36 85 -51 115 -15 30 -41 93 -57 140 -53 147 -114 314 -128 350
-8 19 -17 50 -20 68 -8 38 4 41 43 13 48 -33 184 -101 204 -101 39 0 10 26
-90 80 -108 59 -178 107 -187 128 -5 15 -10 17 90 -46z m-830 -337 c4 -71 5
-127 1 -124 -12 11 -36 282 -35 389 l2 105 12 -120 c7 -66 16 -178 20 -250z
m-45 -34 c6 -91 14 -170 18 -175 4 -6 12 -26 18 -43 9 -26 9 -33 -1 -33 -17 0
-22 14 -35 112 -6 45 -15 108 -20 138 -5 30 -12 123 -16 207 -8 183 6 243 17
73 5 -63 13 -189 19 -279z m-626 352 c-20 -83 -160 -507 -176 -533 -7 -12 -8
-10 -4 5 3 11 10 43 17 70 44 188 78 300 119 390 15 33 30 68 33 78 10 27 18
20 11 -10z m3611 -38 c-9 -20 -18 -35 -21 -32 -3 2 3 21 12 41 23 47 29 40 9
-9z m-5698 -207 c-132 -320 -175 -469 -187 -643 -5 -71 -22 -211 -39 -310 -17
-99 -37 -220 -46 -270 -24 -146 -38 -333 -32 -435 21 -327 53 -539 97 -632 31
-66 31 -89 0 -48 -20 27 -50 107 -50 136 0 9 -15 60 -34 113 -46 132 -55 171
-86 388 -15 107 -12 383 5 488 17 106 17 105 7 105 -14 0 -41 -137 -53 -265
-14 -153 -5 -381 21 -504 22 -104 24 -120 12 -105 -33 39 -67 250 -67 418 0
100 -3 132 -9 113 -17 -48 -25 -29 -10 26 7 28 25 113 39 187 39 210 56 269
125 430 17 41 34 82 37 91 2 9 16 22 29 28 21 9 24 17 24 66 0 60 49 271 80
345 10 25 32 86 49 135 30 91 50 139 76 185 8 14 28 54 45 89 60 126 40 49
-33 -131z m2373 123 c-5 -29 -9 -88 -8 -130 1 -68 -5 -93 -55 -241 -67 -200
-150 -392 -205 -480 -23 -36 -42 -60 -42 -53 0 6 21 56 46 110 25 54 70 172
101 262 30 91 60 176 67 190 7 15 16 42 20 61 14 76 78 341 82 337 2 -2 0 -27
-6 -56z m3260 -34 c0 -8 -9 -22 -20 -32 -22 -20 -27 -6 -8 25 15 23 28 26 28
7z m-3030 -320 c5 -37 14 -77 20 -90 10 -21 10 -21 -4 -3 -22 28 -54 188 -60
301 l-5 100 20 -120 c10 -66 24 -150 29 -188z m467 161 c-2 -13 -4 -3 -4 22 0
25 2 35 4 23 2 -13 2 -33 0 -45z m-419 -188 c0 -55 -28 79 -32 160 l-5 85 19
-110 c10 -60 19 -121 18 -135z m-1128 171 c0 -32 -314 -214 -542 -315 -210
-94 -226 -98 -174 -51 22 19 64 50 94 67 167 100 262 151 324 173 38 14 83 32
101 42 17 9 40 18 51 20 22 4 116 50 131 64 12 11 15 11 15 0z m860 -68 c0
-31 -63 -200 -68 -183 -2 5 6 38 17 72 11 35 23 80 27 101 7 43 24 50 24 10z
m129 -63 l0 -25 -11 25 c-5 14 -13 32 -17 40 -4 8 -5 24 -3 35 4 16 7 13 18
-15 7 -19 13 -46 13 -60z m548 68 c-3 -8 -6 -5 -6 6 -1 11 2 17 5 13 3 -3 4
-12 1 -19z m-83 -40 c-3 -24 -18 -61 -34 -83 -56 -82 -56 -83 -8 -105 34 -15
37 -18 13 -13 -39 8 -85 34 -85 49 0 6 11 19 24 27 28 19 71 90 81 135 10 46
16 39 9 -10z m-415 -52 c13 -51 8 -75 -7 -35 -13 35 -23 104 -13 93 5 -5 14
-31 20 -58z m598 -33 c-3 -10 -5 -2 -5 17 0 19 2 27 5 18 2 -10 2 -26 0 -35z
m-17 -58 c-7 -8 -17 -15 -23 -15 -5 0 -2 9 8 20 21 23 35 19 15 -5z m80 2 c0
-30 -64 -139 -94 -162 -37 -28 -60 -34 -27 -7 21 17 56 74 88 145 18 37 33 48
33 24z m-568 -19 c-7 -7 -12 -8 -12 -2 0 14 12 26 19 19 2 -3 -1 -11 -7 -17z
m418 -18 c-8 -5 -22 -10 -30 -10 -13 0 -13 1 0 10 8 5 22 10 30 10 13 0 13 -1
0 -10z m844 -185 c3 -82 8 -168 11 -190 3 -33 2 -30 -10 15 -17 64 -31 363
-17 340 5 -8 12 -82 16 -165z m81 60 c23 -111 45 -272 44 -320 -1 -30 -6 -16
-20 55 -17 83 -26 138 -54 335 -11 69 12 17 30 -70z m-1299 17 c-13 -12 -17 8
-9 44 l8 39 3 -39 c2 -21 1 -41 -2 -44z m45 45 c-8 -8 -11 -7 -11 4 0 20 13
34 18 19 3 -7 -1 -17 -7 -23z m1225 -160 c9 -71 14 -131 11 -133 -11 -12 -47
216 -46 291 l1 40 9 -35 c4 -19 15 -93 25 -163z m-1059 112 l2 -54 -14 50
c-18 62 -18 68 -2 63 7 -3 13 -26 14 -59z m-170 -31 c-3 -7 -5 -2 -5 12 0 14
2 19 5 13 2 -7 2 -19 0 -25z m146 2 c3 -11 2 -20 -3 -20 -4 0 -10 11 -12 25
-6 29 7 25 15 -5z m116 -13 c1 -5 -3 -5 -9 -2 -5 3 -10 16 -9 28 0 21 1 21 9
2 5 -11 9 -24 9 -28z m868 -114 c-3 -10 -5 -4 -5 12 0 17 2 24 5 18 2 -7 2
-21 0 -30z m-93 -111 c79 -76 99 -102 78 -102 -26 0 -86 61 -182 184 -31 40
17 2 104 -82z m109 38 c4 -30 3 -38 -3 -25 -8 19 -14 83 -6 74 2 -2 6 -24 9
-49z m167 -220 c5 0 13 12 18 28 9 24 11 21 11 -28 1 -30 6 -71 11 -90 6 -19
19 -105 30 -190 11 -85 36 -234 55 -330 19 -96 47 -245 64 -330 44 -230 130
-475 156 -448 4 4 -6 40 -23 80 -49 119 -87 260 -137 509 -25 129 -52 259 -60
289 -15 61 -41 231 -50 325 -5 60 -5 60 9 25 8 -19 15 -47 15 -61 1 -14 10
-59 20 -100 24 -88 58 -251 72 -334 15 -93 107 -516 130 -602 31 -114 64 -162
103 -147 9 3 17 -3 21 -16 15 -47 153 -187 237 -240 46 -29 113 -72 149 -96
37 -24 69 -44 73 -44 9 0 240 -130 438 -248 173 -103 276 -175 374 -260 41
-37 44 -41 17 -28 -17 9 -35 20 -38 26 -20 33 -244 167 -465 279 -213 107
-304 160 -410 235 -99 72 -129 88 -115 66 10 -16 145 -114 230 -167 44 -27
192 -107 329 -177 258 -132 430 -245 554 -362 75 -70 56 -69 -33 2 -38 31 -88
65 -110 76 -22 12 -58 33 -80 48 -22 15 -60 38 -85 51 -25 14 -65 38 -90 54
-52 33 -214 121 -380 206 -160 81 -183 95 -287 172 -139 102 -289 265 -356
387 -10 18 -20 30 -24 27 -15 -16 88 -167 177 -261 131 -138 264 -233 472
-340 95 -49 218 -114 273 -144 103 -56 345 -205 341 -210 -9 -9 -391 195 -524
280 -34 23 -65 38 -68 35 -13 -13 206 -144 460 -276 147 -77 236 -130 326
-195 60 -43 230 -204 230 -218 0 -4 -26 13 -57 39 -102 82 -357 242 -369 230
-3 -3 27 -25 68 -49 89 -52 278 -181 274 -186 -4 -3 -66 27 -260 128 -65 34
-120 59 -123 57 -4 -5 84 -60 142 -89 99 -50 216 -115 255 -141 76 -53 184
-159 209 -207 22 -42 17 -39 -80 56 -57 56 -120 109 -139 119 -19 10 -55 32
-80 49 -25 18 -106 60 -180 95 -74 35 -174 83 -221 107 -48 24 -139 61 -202
83 -136 47 -334 133 -396 173 -25 15 -49 28 -54 28 -11 0 -194 133 -312 227
-111 88 -221 221 -264 320 -17 39 -31 79 -31 88 0 9 -6 15 -12 13 -13 -5 -16
-17 -43 -215 -22 -167 -90 -364 -167 -488 -192 -307 -314 -473 -598 -819 -101
-122 -109 -132 -110 -122 0 5 7 18 17 28 9 10 12 18 6 18 -6 0 -23 -19 -38
-41 -15 -23 -21 -38 -15 -34 22 14 -6 -27 -75 -110 -54 -65 -189 -242 -259
-340 -8 -11 -17 -17 -21 -14 -8 9 25 90 96 236 32 67 59 127 59 132 0 11 101
204 110 211 4 3 27 37 51 75 24 39 63 99 87 135 24 35 36 57 26 50 -10 -8 -62
-82 -115 -165 -100 -153 -147 -219 -111 -155 11 19 36 71 56 115 33 76 50 106
137 245 54 86 180 272 208 307 14 18 36 45 48 60 12 15 43 55 70 88 27 33 64
83 82 112 17 28 39 57 47 64 9 7 27 33 40 58 24 44 122 209 143 241 41 61
-102 -244 -155 -331 -20 -33 -34 -63 -31 -65 12 -12 180 298 207 381 7 22 28
74 46 116 42 96 67 210 59 267 -3 23 -10 42 -14 42 -5 0 -20 -46 -34 -102 -50
-199 -155 -399 -367 -702 -61 -87 -127 -179 -148 -205 -64 -78 -186 -252 -231
-331 -24 -41 -59 -99 -79 -129 -19 -29 -47 -86 -63 -126 -15 -40 -42 -101 -59
-135 -19 -38 -29 -71 -26 -83 3 -13 -9 -54 -30 -102 -113 -254 -131 -290 -121
-230 3 17 9 57 12 89 8 69 63 255 100 339 14 32 25 65 25 75 -1 9 -12 -10 -26
-43 -28 -68 -50 -98 -33 -45 16 53 68 171 125 286 28 57 48 104 43 104 -5 0
-9 -4 -9 -8 0 -4 -16 -32 -35 -62 -19 -30 -40 -70 -46 -89 -7 -20 -27 -68 -46
-108 -39 -82 -73 -196 -66 -222 6 -24 -16 -103 -27 -96 -13 8 -18 -5 -35 -81
-25 -112 -45 -245 -45 -306 0 -31 -5 -81 -12 -110 -10 -46 -12 -50 -19 -28
-11 39 -10 132 2 212 11 72 72 315 89 353 5 11 16 47 25 80 23 80 34 111 57
165 12 25 26 61 33 80 35 100 258 510 383 705 96 150 142 220 150 230 40 49
145 190 181 244 24 36 53 77 66 91 31 36 80 126 98 185 17 54 59 366 53 387
-9 28 -15 142 -7 123 5 -12 14 -92 20 -178 13 -178 19 -217 34 -217 6 0 7 21
3 58 -4 31 -11 109 -16 172 -15 178 -46 427 -61 484 -6 22 -19 87 -30 145
l-18 106 4 -77 c3 -42 13 -128 24 -190 24 -139 34 -225 26 -217 -7 8 -18 69
-44 249 -37 260 -40 305 -25 465 7 83 13 187 14 233 0 53 4 81 10 77 13 -8 13
-163 -1 -342 -9 -108 -9 -147 0 -156 8 -8 11 3 11 44 0 30 4 70 10 89 5 19 12
111 16 205 6 169 6 170 32 192 l27 21 3 -24 c2 -13 7 -24 12 -24z m75 -77 c4
-14 2 -23 -4 -23 -6 0 -11 3 -11 8 0 4 -3 18 -6 32 -8 31 11 16 21 -17z
m-1236 -180 c-1 -62 -6 -56 -11 15 -2 23 0 42 4 42 5 0 7 -26 7 -57z m1350
-129 c39 -118 52 -178 86 -393 18 -112 120 -532 136 -564 14 -25 3 -35 -17
-16 -28 29 -64 161 -140 517 -41 196 -86 407 -100 469 -27 127 -28 131 -14
117 5 -5 27 -64 49 -130z m-4703 -409 c14 -117 24 -169 65 -349 11 -48 18 -90
16 -92 -16 -16 -69 137 -87 251 -7 39 -13 140 -15 225 -2 85 -1 139 1 120 3
-19 11 -89 20 -155z m544 -164 c-18 -72 -35 -133 -40 -136 -4 -2 -2 19 5 48
36 151 60 238 63 228 2 -5 -11 -69 -28 -140z m-70 22 c-10 -16 -11 -15 -6 7 3
14 6 34 7 45 1 13 3 11 6 -7 2 -15 -1 -35 -7 -45z m37 -15 c-3 -8 -6 -5 -6 6
-1 11 2 17 5 13 3 -3 4 -12 1 -19z m-12 -60 c-16 -95 -125 -403 -125 -352 0 5
20 68 44 139 24 72 52 158 61 193 20 71 30 82 20 20z m-390 -117 c4 -15 3 -21
-3 -17 -5 3 -12 17 -15 32 -5 30 8 20 18 -15z m2861 -135 c-8 -100 -23 -161
-44 -178 -13 -12 -13 -10 1 17 20 40 41 185 34 238 -4 33 -3 38 5 23 7 -12 8
-48 4 -100z m-2821 -35 c19 -46 34 -89 32 -95 -6 -19 -42 59 -77 168 -18 55 8
12 45 -73z m145 48 c0 -17 -4 -28 -10 -24 -5 3 -10 17 -10 31 0 13 5 24 10 24
6 0 10 -14 10 -31z m2404 -123 c-10 -31 -19 -54 -22 -52 -2 2 4 29 14 60 10
31 19 54 22 52 2 -2 -4 -29 -14 -60z m27 -7 c-9 -22 -10 -22 -10 -3 -1 11 2
24 6 27 12 12 14 0 4 -24z m1183 -38 c-6 -6 -11 1 -18 29 l-7 25 15 -25 c8
-14 12 -27 10 -29z m-580 -96 c5 -29 4 -45 -2 -41 -14 8 -32 89 -31 138 l1 43
13 -47 c7 -25 16 -67 19 -93z m541 46 c9 -36 19 -71 22 -78 3 -7 1 -13 -4 -13
-9 0 -36 76 -48 140 -12 58 10 22 30 -49z m-516 38 c6 -18 11 -53 10 -78 l-1
-46 -13 53 c-7 29 -16 64 -19 77 -9 36 10 31 23 -6z m-647 -29 c-2 -16 -10
-35 -18 -41 -17 -14 -18 -3 -3 40 14 39 27 40 21 1z m1198 -9 c7 -21 10 -45 8
-52 -3 -8 -10 2 -16 21 -5 19 -13 43 -17 53 -4 9 -3 17 2 17 6 0 16 -17 23
-39z m44 -11 c5 -17 4 -20 -2 -10 -5 8 -13 26 -16 40 -5 17 -4 20 2 10 5 -8
13 -26 16 -40z m-255 -77 c7 -32 17 -71 22 -87 5 -16 9 -36 9 -46 0 -25 -25
-54 -39 -46 -8 6 -9 12 -2 20 7 9 7 46 -2 119 -14 114 -8 133 12 40z m-509 20
c0 -21 2 -69 5 -108 3 -52 2 -61 -4 -35 -15 60 -22 180 -11 180 5 0 10 -17 10
-37z m474 -89 c5 -35 4 -43 -3 -28 -5 12 -12 43 -15 70 -5 35 -4 43 3 28 5
-12 12 -43 15 -70z m-428 -25 c6 -54 -10 -33 -19 25 -4 27 -3 36 4 29 6 -6 13
-30 15 -54z m1543 -101 c10 -30 9 -31 -4 -14 -8 11 -15 26 -15 33 0 22 8 14
19 -19z m-22 -265 c-3 -10 -5 -2 -5 17 0 19 2 27 5 18 2 -10 2 -26 0 -35z
m-90 -175 c-3 -7 -5 -2 -5 12 0 14 2 19 5 13 2 -7 2 -19 0 -25z m-1104 -105
c3 -49 15 -116 25 -150 11 -35 17 -63 13 -63 -8 0 -29 62 -50 146 -13 49 -14
154 -2 154 4 0 11 -39 14 -87z m57 -88 c8 -25 9 -22 5 20 -2 28 -7 61 -10 75
-6 24 -6 24 9 6 43 -53 74 -214 45 -232 -6 -3 -9 -15 -6 -25 3 -11 4 -19 2
-19 -2 0 -11 -3 -21 -7 -14 -5 -16 -3 -11 11 4 9 -3 40 -14 69 -22 57 -52 234
-42 251 4 6 13 -19 20 -54 8 -36 18 -78 23 -95z m985 59 c7 -38 0 -58 -11 -30
-3 9 -12 16 -20 16 -11 0 -11 5 -2 25 15 34 25 31 33 -11z m313 -209 c24 -174
37 -357 22 -310 -10 32 -50 377 -56 480 -2 52 -2 55 5 20 5 -22 18 -107 29
-190z m580 162 c17 -20 42 -103 177 -587 21 -74 42 -143 47 -152 5 -11 5 -18
0 -18 -11 0 -14 7 -87 220 -30 91 -60 175 -65 188 -5 12 -21 66 -34 120 -22
85 -48 169 -71 225 -9 20 17 24 33 4z m-851 -29 c-3 -7 -5 -2 -5 12 0 14 2 19
5 13 2 -7 2 -19 0 -25z m232 -168 c27 -243 33 -302 27 -307 -20 -20 -54 190
-52 322 0 22 -3 72 -6 110 l-7 70 14 -55 c8 -30 19 -93 24 -140z m1561 75 c36
-39 83 -92 104 -120 l38 -50 -44 47 c-148 160 -210 230 -188 213 14 -11 54
-52 90 -90z m-865 85 c11 -17 53 -183 91 -353 19 -87 49 -198 66 -245 34 -99
156 -363 194 -424 37 -58 25 -55 -23 5 -51 65 -133 230 -161 322 -11 39 -35
116 -52 173 -17 57 -42 145 -55 195 -24 94 -40 150 -73 270 -15 52 -16 67 -6
67 7 0 16 -5 19 -10z m-965 -25 c0 -8 -4 -15 -10 -15 -5 0 -10 7 -10 15 0 8 5
15 10 15 6 0 10 -7 10 -15z m897 -160 c48 -176 176 -530 229 -637 24 -49 41
-88 37 -88 -34 0 -243 511 -293 714 -11 44 -25 98 -31 118 -7 20 -8 45 -4 55
6 16 8 15 17 -7 5 -14 25 -83 45 -155z m143 157 c17 -14 26 -40 40 -127 10
-61 24 -126 29 -145 6 -19 20 -84 32 -145 11 -60 31 -152 45 -204 13 -52 23
-96 21 -98 -2 -2 -20 38 -40 87 -35 88 -78 247 -132 495 -15 66 -29 128 -32
138 -6 22 9 22 37 -1z m-620 -172 c6 -47 14 -98 16 -115 4 -26 3 -27 -5 -9
-10 23 -42 235 -40 269 1 25 14 -36 29 -145z m-390 131 c0 -6 -4 -13 -10 -16
-5 -3 -10 1 -10 9 0 9 5 16 10 16 6 0 10 -4 10 -9z m50 -58 c-1 -39 -10 -33
-24 15 -6 16 -3 22 8 22 12 0 16 -10 16 -37z m811 -223 c45 -142 133 -362 195
-489 23 -47 41 -87 40 -88 -1 -2 -49 70 -115 174 -25 41 -99 218 -120 293 -7
25 -18 57 -23 73 -6 15 -22 76 -37 136 -21 84 -25 114 -17 132 10 21 12 17 24
-41 8 -36 32 -121 53 -190z m-176 230 c3 -5 1 -10 -4 -10 -6 0 -11 5 -11 10 0
6 2 10 4 10 3 0 8 -4 11 -10z m-823 -55 c-9 -25 -20 -45 -24 -45 -12 0 -10 16
9 55 24 50 35 43 15 -10z m38 -17 c0 -19 -40 -81 -47 -74 -8 8 27 86 39 86 4
0 8 -6 8 -12z m719 -20 c17 -44 24 -94 12 -83 -10 10 -33 105 -24 105 2 0 7
-10 12 -22z m156 -24 c3 -25 22 -98 41 -162 38 -131 41 -153 15 -102 -35 65
-92 257 -85 284 9 39 21 31 29 -20z m-1029 -31 c-9 -91 -38 -251 -43 -236 -5
14 25 282 33 294 13 22 16 4 10 -58z m41 -108 c-9 -60 -19 -148 -22 -195 -10
-135 -83 -463 -107 -485 -8 -7 -9 -5 -5 8 10 27 45 204 52 262 4 28 16 100 26
160 11 61 24 135 29 165 6 30 11 102 11 160 1 103 2 104 16 70 14 -31 14 -47
0 -145z m313 137 c0 -21 -2 -24 -10 -12 -13 20 -13 53 0 45 6 -3 10 -18 10
-33z m489 -63 c13 -77 14 -105 4 -95 -5 4 -13 45 -18 92 -13 97 -2 100 14 3z
m-430 2 c7 -34 18 -61 26 -65 8 -3 15 -15 15 -27 0 -18 -2 -20 -16 -8 -16 13
-74 94 -74 103 0 3 7 3 16 -1 14 -5 15 -1 9 25 -4 19 -3 32 3 32 5 0 15 -27
21 -59z m-259 0 c-11 -22 -30 -28 -30 -10 0 5 8 21 18 34 20 27 30 8 12 -24z
m590 -9 c0 -21 -2 -24 -10 -12 -13 20 -13 53 0 45 6 -3 10 -18 10 -33z m-798
1 c-3 -16 -7 -22 -10 -15 -4 13 4 42 11 42 2 0 2 -12 -1 -27z m268 -30 c-17
-52 -27 -61 -44 -38 -16 23 -5 55 19 55 9 0 15 9 15 22 0 16 3 19 11 11 8 -8
8 -21 -1 -50z m770 48 c0 -5 3 -17 7 -27 4 -11 3 -15 -4 -11 -14 9 -24 47 -12
47 5 0 9 -4 9 -9z m-895 -66 c-4 -11 -13 -45 -21 -75 l-14 -55 5 55 c3 30 5
73 5 95 1 38 1 39 16 20 9 -11 12 -29 9 -40z m538 -49 c3 -30 1 -43 -4 -35 -5
8 -8 34 -8 59 1 53 6 44 12 -24z m-397 -12 c-3 -9 -10 -13 -15 -10 -5 4 -4 19
2 37 11 28 12 29 15 10 2 -13 1 -29 -2 -37z m488 40 c3 -9 6 -27 6 -42 0 -14
9 -36 21 -48 13 -13 17 -24 10 -28 -16 -10 -51 31 -51 62 0 15 -3 37 -6 50 -7
25 11 31 20 6z m1576 -20 c31 -48 21 -51 -13 -3 -16 21 -24 39 -18 39 5 0 19
-16 31 -36z m-2022 -35 c-14 -40 -31 -37 -23 4 10 42 16 52 25 37 4 -7 3 -26
-2 -41z m-343 -80 c-7 -63 -25 -191 -39 -284 -14 -94 -31 -206 -36 -250 -15
-109 -39 -253 -50 -295 -11 -41 -68 -135 -77 -126 -7 7 14 135 29 181 6 17 14
80 18 140 12 153 39 385 47 399 4 6 17 54 29 106 12 52 23 86 23 74 1 -25 -41
-357 -69 -541 -11 -72 -20 -146 -19 -165 l1 -33 8 30 c13 50 46 274 65 440 30
259 36 303 57 373 11 40 22 71 24 69 1 -1 -3 -54 -11 -118z m887 58 c-10 -20
-23 12 -15 39 l7 29 6 -30 c4 -16 4 -34 2 -38z m-133 -27 c1 -13 0 -13 -9 0
-5 8 -9 26 -9 40 l1 25 8 -25 c4 -14 8 -32 9 -40z m-329 28 c0 -16 -3 -19 -11
-11 -6 6 -8 16 -5 22 11 17 16 13 16 -11z m-531 -48 c-16 -92 -39 -321 -39
-382 0 -80 -16 -80 -25 0 -13 110 -14 97 60 421 11 44 13 16 4 -39z m475 36
c-3 -9 -10 -16 -15 -16 -6 0 -5 9 1 21 13 24 24 20 14 -5z m-509 -65 c-8 -58
-33 -153 -34 -130 -1 14 13 106 24 157 10 42 17 22 10 -27z m588 29 c-6 -22
-23 -38 -23 -21 0 17 12 41 20 41 5 0 6 -9 3 -20z m-413 -137 c-55 -354 -104
-593 -121 -593 -11 0 -11 7 1 51 6 20 19 96 30 170 29 206 60 392 67 414 4 11
6 31 4 44 -2 14 1 21 8 17 6 -4 13 4 17 19 3 14 9 24 11 21 3 -2 -5 -67 -17
-143z m364 126 c-3 -5 -10 -7 -15 -3 -5 3 -7 10 -3 15 3 5 10 7 15 3 5 -3 7
-10 3 -15z m106 8 c0 -7 -7 -23 -16 -36 -22 -30 -39 -13 -23 22 13 28 39 37
39 14z m-589 -89 c-17 -91 -36 -134 -26 -58 8 52 35 154 39 149 2 -2 -4 -43
-13 -91z m209 42 c0 -22 -3 -40 -8 -40 -4 0 -6 18 -4 40 2 22 6 40 8 40 2 0 4
-18 4 -40z m429 27 c8 -10 7 -18 -3 -32 -15 -21 -36 -13 -36 14 0 31 20 40 39
18z m-739 -78 c-7 -39 -10 -87 -6 -107 4 -28 3 -33 -7 -23 -15 15 -13 128 3
177 19 55 23 32 10 -47z m909 -31 c7 -40 26 -139 42 -220 16 -81 29 -162 29
-180 0 -40 14 -122 45 -258 13 -58 35 -168 50 -245 15 -77 38 -196 52 -265 14
-69 35 -183 47 -255 l21 -130 -51 51 c-49 49 -52 56 -67 135 -28 145 -55 272
-72 334 -9 33 -20 96 -25 140 -6 44 -19 123 -30 175 -40 197 -54 315 -77 688
-5 86 -4 102 9 102 11 0 18 -21 27 -72z m48 20 c-3 -7 -5 -2 -5 12 0 14 2 19
5 13 2 -7 2 -19 0 -25z m20 -145 c-3 -10 -5 -4 -5 12 0 17 2 24 5 18 2 -7 2
-21 0 -30z m117 2 c9 -44 124 -404 178 -555 23 -63 70 -180 106 -260 134 -299
155 -348 204 -480 42 -115 49 -142 44 -183 -8 -73 -17 -75 -41 -9 -12 34 -41
87 -64 117 -36 48 -55 94 -130 323 -48 147 -102 303 -118 347 -55 143 -93 273
-142 478 -27 111 -51 214 -54 230 -6 40 10 33 17 -8z m516 0 c0 -8 -2 -15 -4
-15 -2 0 -6 7 -10 15 -3 8 -1 15 4 15 6 0 10 -7 10 -15z m-2325 -485 l-14 -65
5 60 c6 56 12 81 19 73 2 -2 -3 -32 -10 -68z m-14 -127 c-4 -28 -6 -32 -9 -15
-3 22 3 52 11 52 1 0 1 -17 -2 -37z m1894 -874 c20 -76 30 -179 17 -179 -13 0
-23 26 -16 45 4 8 1 46 -6 83 -17 96 -17 96 -35 78 -11 -11 -14 -27 -10 -53 4
-28 3 -33 -4 -18 -16 34 -13 95 4 95 8 0 15 5 15 12 0 27 22 -12 35 -63z m231
-2 c28 -63 44 -155 25 -142 -7 4 -10 17 -7 30 4 14 0 27 -8 34 -15 12 -46 93
-46 118 0 25 11 13 36 -40z m-11 -135 c-6 -6 -25 45 -24 66 0 9 7 -1 15 -22 8
-22 12 -41 9 -44z m311 -2 c1 -75 -6 -99 -19 -65 -8 21 5 145 15 145 2 0 3
-36 4 -80z m-734 25 c5 -26 -6 -34 -16 -12 -3 6 -4 -10 -1 -38 l4 -50 -13 35
c-21 53 -20 90 3 90 12 0 20 -9 23 -25z m591 5 c3 -11 1 -18 -4 -14 -5 3 -9
12 -9 20 0 20 7 17 13 -6z m87 -87 c0 -19 -3 -24 -10 -17 -6 6 -8 18 -4 27 9
24 14 21 14 -10z m-671 -55 c6 -18 7 -28 2 -23 -10 12 -25 55 -18 55 3 0 10
-15 16 -32z m-121 -59 c7 -28 12 -67 11 -87 -1 -37 -1 -36 -19 18 -10 30 -23
54 -29 52 -8 -1 -9 7 -5 25 14 60 27 58 42 -8z m482 -27 c0 -15 -2 -15 -10 -2
-13 20 -13 33 0 25 6 -3 10 -14 10 -23z m-513 -54 c-3 -7 -5 -2 -5 12 0 14 2
19 5 13 2 -7 2 -19 0 -25z m557 -102 c3 -14 3 -26 -2 -26 -8 0 -43 125 -41
150 1 14 28 -64 43 -124z m46 -138 c7 -24 20 -74 31 -112 29 -107 15 -90 -25
31 -39 118 -40 123 -26 123 5 0 14 -19 20 -42z m-45 -23 c-5 -29 0 -67 14
-121 34 -129 35 -134 13 -94 -29 52 -53 170 -46 224 4 25 11 43 16 40 5 -3 6
-25 3 -49z m103 -46 c2 -13 10 -53 18 -87 24 -102 10 -82 -18 23 -14 56 -20
94 -14 92 6 -2 12 -14 14 -28z m-59 -89 c0 -8 -7 5 -15 30 -7 25 -13 52 -13
60 0 8 7 -5 15 -30 7 -25 13 -52 13 -60z m-69 -1 c0 -11 -4 -17 -10 -14 -5 3
-10 15 -10 26 0 11 5 17 10 14 6 -3 10 -15 10 -26z m20 -60 c0 -6 -4 -7 -10
-4 -5 3 -10 11 -10 16 0 6 5 7 10 4 6 -3 10 -11 10 -16z"/>
<path d="M1442 8879 c7 -21 54 -51 74 -47 15 2 10 8 -21 28 -53 33 -58 35 -53
19z"/>
</g>
</svg>
